<?xml version="1.0" encoding="utf-8"?>
<!-- Generator: Adobe Illustrator 20.1.0, SVG Export Plug-In . SVG Version: 6.00 Build 0)  -->
<svg version="1.1" id="Layer_1" xmlns="http://www.w3.org/2000/svg" xmlns:xlink="http://www.w3.org/1999/xlink" x="0px" y="0px"
	 viewBox="0 0 188.6 135" style="enable-background:new 0 0 188.6 135;" xml:space="preserve">
<style type="text/css">
	.st0{fill:#FFFFFF;}
</style>
<g id="hp_keep_reinventing_x5F_vertical">
	<g>
		<path class="st0" d="M94.4,92.6c-0.5,0-0.9,0-1.4,0l9.5-26h13c2.3,0,4.8-1.8,5.6-3.9l10.3-28.2c1.7-4.6-1-8.4-5.9-8.4h-18.1
			L92.2,67.7h0l-8.6,23.6c-20.4-4.8-35.5-23.2-35.5-45c0-21.2,14.3-39.1,33.8-44.6L73,26.1h0L58.3,66.6l9.8,0l12.5-34.4H88
			L75.5,66.6l9.8,0l11.7-32.1c1.7-4.6-1-8.4-5.9-8.4h-8.2l9.5-26c0.7,0,1.4,0,2.1,0c25.6,0,46.3,20.7,46.3,46.3
			C140.7,71.8,119.9,92.6,94.4,92.6z M122.4,32.1H115l-10.3,28.3h7.4L122.4,32.1z"/>
	</g>
	<g>
		<path class="st0" d="M49.3,117.8c-0.6-0.5-1.3-0.9-2.1-1.2c-0.8-0.2-1.8-0.3-2.8-0.3c-0.4,0-0.8,0-1.2,0c-0.4,0-0.8,0.1-1.3,0.1
			c-0.4,0-0.8,0.1-1.2,0.1c-0.4,0.1-0.8,0.1-1.1,0.2l-0.3,0.1v1c0,0.5,0.3,0.8,0.8,0.8h0.1v15.6c0,0.5,0.3,0.8,0.8,0.8h1.5V130
			c0.2,0.1,0.5,0.2,0.8,0.3c0.6,0.2,1.3,0.3,2.3,0.3c1,0,1.9-0.2,2.6-0.5c0.7-0.3,1.3-0.8,1.8-1.5c0.4-0.6,0.7-1.4,0.9-2.3
			c0.2-0.9,0.3-1.9,0.3-3.1c0-1.3-0.1-2.4-0.4-3.3C50.2,119.1,49.8,118.3,49.3,117.8z M48.4,125.9c-0.1,0.7-0.4,1.2-0.7,1.6
			c-0.3,0.4-0.6,0.6-1,0.8c-0.4,0.2-1,0.2-1.6,0.2c-0.6,0-1.2-0.1-1.6-0.2c-0.4-0.1-0.8-0.3-1.2-0.4v-9.5c0.3,0,0.6,0,0.9,0
			c0.4,0,0.8,0,1.1,0c0.9,0,1.6,0.1,2.2,0.3c0.5,0.2,1,0.5,1.3,0.8c0.3,0.4,0.6,0.9,0.7,1.5c0.2,0.7,0.2,1.5,0.2,2.4
			C48.7,124.4,48.6,125.3,48.4,125.9z"/>
		<path class="st0" d="M169.7,116.1c-0.6,0-1.1,0.1-1.6,0.2c-0.5,0.1-0.9,0.3-1.3,0.4c-0.4,0.2-0.7,0.4-1,0.6c0,0-0.1,0.1-0.1,0.1
			l0-0.2c0-0.5-0.3-0.8-0.8-0.8h-1.4v13.2c0,0.5,0.3,0.8,0.8,0.8h1.5v-10.6c0.1-0.1,0.3-0.3,0.5-0.5c0.2-0.2,0.5-0.4,0.8-0.6
			c0.3-0.2,0.7-0.3,1-0.4c0.4-0.1,0.8-0.2,1.2-0.2c0.8,0,1.4,0.2,1.9,0.7c0.5,0.4,0.7,1.2,0.7,2.3v8.5c0,0.5,0.3,0.8,0.8,0.8h1.5
			v-9.3c0-1.7-0.4-3-1.2-3.8C172.1,116.5,171,116.1,169.7,116.1z"/>
		<path class="st0" d="M68.3,116.6c-0.2-0.1-0.4-0.2-0.9-0.2c-0.5,0-0.9,0.1-1.3,0.2c-0.4,0.1-0.8,0.3-1.2,0.5
			c-0.4,0.2-0.7,0.4-1,0.7c0,0-0.1,0.1-0.1,0.1l0-0.6c0-0.5-0.3-0.8-0.8-0.8h-1.4v13.2c0,0.5,0.3,0.8,0.8,0.8h1.5v-10.1
			c0.5-0.6,1.1-1.1,1.6-1.3c0.6-0.3,1.2-0.4,2-0.4h0.3c0.1,0,0.2,0,0.3,0l0.4,0.1v-1.4C68.6,116.9,68.4,116.7,68.3,116.6z"/>
		<path class="st0" d="M35.4,117.9c-0.4-0.6-0.9-1-1.6-1.3c-0.7-0.3-1.5-0.5-2.5-0.5c-0.9,0-1.7,0.1-2.4,0.4
			c-0.7,0.3-1.3,0.7-1.8,1.3c-0.5,0.6-0.8,1.4-1.1,2.3c-0.2,0.9-0.4,2-0.4,3.3c0,1.3,0.1,2.4,0.4,3.3c0.2,0.9,0.6,1.7,1.1,2.2
			c0.5,0.6,1.2,1,1.9,1.3c0.8,0.2,1.6,0.4,2.7,0.4h0l0,0c0.8,0,1.5-0.1,2.2-0.2c0.7-0.1,1.3-0.2,1.7-0.4l0.3-0.1v-0.9
			c0-0.2-0.1-0.3-0.2-0.5c-0.1-0.1-0.3-0.3-0.6-0.3c-0.2,0-0.6,0-1.2,0.2c-0.5,0.1-1.2,0.1-2,0.1c-0.8,0-1.5-0.1-2-0.3
			c-0.5-0.2-0.9-0.4-1.1-0.8c-0.3-0.4-0.5-0.8-0.6-1.4c-0.1-0.5-0.2-1.1-0.3-1.8h8.2l0.1-0.3c0.1-0.2,0.1-0.5,0.1-0.9
			c0-0.4,0.1-0.7,0.1-1.1c0-0.8-0.1-1.6-0.2-2.3C36,119.1,35.8,118.4,35.4,117.9z M34.2,122.4h-6.3c0-0.5,0.1-1.1,0.2-1.5
			c0.1-0.6,0.3-1,0.6-1.4c0.3-0.4,0.6-0.7,1-0.9c0.4-0.2,1-0.3,1.6-0.3c0.6,0,1.1,0.1,1.5,0.2c0.4,0.2,0.6,0.4,0.8,0.7
			c0.2,0.3,0.4,0.7,0.4,1.2c0.1,0.5,0.1,1.1,0.1,1.8V122.4z"/>
		<path class="st0" d="M9.2,127.8c-0.5-0.6-1-1.2-1.6-1.7c-0.6-0.6-1.2-1.1-1.8-1.7c-0.5-0.5-1.2-0.9-1.8-1.4c0.5-0.4,1-0.7,1.5-1.1
			c0.6-0.5,1.2-1,1.7-1.5c0.5-0.5,1-0.9,1.4-1.3c0.4-0.4,0.7-0.8,1-1.1c0.1-0.1,0.2-0.2,0.3-0.3c0.1-0.2,0.2-0.4,0.2-0.6
			c0-0.3-0.2-0.6-0.7-0.6H8.1L8,116.6c-0.8,0.9-1.7,1.8-2.7,2.8c-0.9,0.8-1.9,1.6-3.1,2.4v-10.2c0-0.5-0.3-0.8-0.8-0.8H0v18.8
			c0,0.5,0.3,0.8,0.8,0.8h1.5v-6.1c1.2,0.9,2.3,1.8,3.2,2.6c1,1,1.9,2,2.7,3c0.3,0.4,0.6,0.4,0.8,0.4h2.2l-0.4-0.6
			C10.2,129.1,9.7,128.4,9.2,127.8z"/>
		<path class="st0" d="M22.1,117.9c-0.4-0.6-0.9-1-1.6-1.3c-0.7-0.3-1.5-0.5-2.5-0.5c-0.9,0-1.7,0.1-2.4,0.4
			c-0.7,0.3-1.3,0.7-1.8,1.3c-0.5,0.6-0.8,1.4-1.1,2.3c-0.2,0.9-0.4,2-0.4,3.3c0,1.3,0.1,2.4,0.4,3.3c0.2,0.9,0.6,1.7,1.1,2.2
			c0.5,0.6,1.2,1,1.9,1.3c0.8,0.2,1.6,0.4,2.7,0.4h0l0,0c0.8,0,1.5-0.1,2.2-0.2c0.7-0.1,1.3-0.2,1.7-0.4l0.3-0.1v-0.9
			c0-0.2-0.1-0.3-0.2-0.5c-0.1-0.1-0.3-0.3-0.6-0.3c-0.2,0-0.6,0-1.2,0.2c-0.5,0.1-1.2,0.1-2,0.1c-0.8,0-1.5-0.1-2-0.3
			c-0.5-0.2-0.9-0.4-1.1-0.8c-0.3-0.4-0.5-0.8-0.6-1.4c-0.1-0.5-0.2-1.1-0.3-1.8h8.2l0.1-0.3c0.1-0.2,0.1-0.5,0.1-0.9
			c0-0.4,0.1-0.7,0.1-1.1c0-0.8-0.1-1.6-0.2-2.3C22.7,119.1,22.4,118.4,22.1,117.9z M20.8,122.4h-6.3c0-0.5,0.1-1.1,0.2-1.5
			c0.1-0.6,0.3-1,0.6-1.4c0.3-0.4,0.6-0.7,1-0.9c0.4-0.2,1-0.3,1.6-0.3c0.6,0,1.1,0.1,1.5,0.2c0.4,0.2,0.6,0.4,0.8,0.7
			c0.2,0.3,0.4,0.7,0.4,1.2c0.1,0.5,0.1,1.1,0.1,1.8V122.4z"/>
		<path class="st0" d="M188.4,116.9c-0.1-0.1-0.3-0.2-0.7-0.3c-0.2,0-0.5-0.1-0.8-0.1c-0.3,0-0.7-0.1-1.1-0.1
			c-0.4,0-0.8-0.1-1.2-0.1c-0.4,0-0.8,0-1.1,0c-1,0-1.9,0.1-2.6,0.3c-0.8,0.2-1.5,0.6-2.1,1.2c-0.6,0.6-1,1.3-1.3,2.3
			c-0.3,0.9-0.4,2.1-0.4,3.5c0,2.2,0.4,3.9,1.2,5.1c0.8,1.2,2.2,1.8,3.9,1.8c0.9,0,1.7-0.1,2.3-0.4c0.4-0.2,0.7-0.3,1-0.5v0.8
			c0,0.5-0.1,0.9-0.2,1.2c-0.1,0.3-0.3,0.6-0.5,0.8c-0.2,0.2-0.6,0.4-1,0.5c-0.4,0.1-1,0.2-1.6,0.2c-0.8,0-1.5,0-2.1-0.1
			c-0.6-0.1-1.2-0.2-1.8-0.3l-0.4-0.1v1.2c0,0.4,0.2,0.7,0.6,0.9c0.6,0.2,1.3,0.3,2,0.4c0.7,0.1,1.3,0.1,2,0.1c1.8,0,3.1-0.4,4-1.3
			c0.9-0.9,1.3-2,1.3-3.5v-11.7h0.8v-1C188.6,117.3,188.5,117.1,188.4,116.9z M185.5,127.2c-0.3,0.2-0.7,0.5-1.2,0.7
			c-0.6,0.3-1.2,0.4-1.8,0.4c-1.2,0-2-0.3-2.4-1c-0.5-0.7-0.8-2-0.8-3.8c0-1.1,0.1-2,0.3-2.7c0.2-0.7,0.4-1.2,0.8-1.5
			c0.3-0.4,0.7-0.6,1.2-0.7c0.5-0.1,1.1-0.2,1.7-0.2c0.5,0,1,0,1.5,0c0.3,0,0.6,0,0.9,0V127.2z"/>
		<path class="st0" d="M115.1,116.4h-1.4l0,0.3c-0.1,1-0.3,2-0.6,3.1c-0.3,1-0.5,2-0.9,3c-0.3,1-0.7,2-1.1,2.9
			c-0.3,0.7-0.6,1.3-0.9,2c-0.7-1.4-1.3-3-1.9-4.7c-0.7-1.9-1.1-3.9-1.4-5.9c-0.1-0.5-0.3-0.7-0.8-0.7h-1.6l0,0.4
			c0.1,1.1,0.3,2.2,0.6,3.3c0.3,1.1,0.6,2.2,1,3.3c0.4,1.1,0.8,2.2,1.3,3.3c0.5,1.1,1,2.1,1.4,3.1c0.1,0.2,0.2,0.4,0.3,0.4
			c0.2,0.2,0.4,0.2,0.6,0.2h1.4l0.1-0.2c0.5-1,1-2,1.5-3.1c0.5-1.1,0.9-2.2,1.3-3.3c0.4-1.1,0.7-2.2,1-3.3c0.3-1.1,0.5-2.2,0.7-3.3
			c0-0.2,0-0.4-0.1-0.5C115.6,116.6,115.5,116.4,115.1,116.4z"/>
		<path class="st0" d="M128,117.9c-0.4-0.6-0.9-1-1.6-1.3c-0.7-0.3-1.5-0.5-2.5-0.5c-0.9,0-1.7,0.1-2.4,0.4
			c-0.7,0.3-1.3,0.7-1.8,1.3c-0.5,0.6-0.8,1.4-1.1,2.3c-0.2,0.9-0.4,2-0.4,3.3c0,1.3,0.1,2.4,0.4,3.3c0.2,0.9,0.6,1.7,1.1,2.2
			c0.5,0.6,1.2,1,1.9,1.3c0.8,0.2,1.6,0.4,2.7,0.4h0l0,0c0.8,0,1.5-0.1,2.2-0.2c0.7-0.1,1.3-0.2,1.7-0.4l0.3-0.1v-0.9
			c0-0.2-0.1-0.3-0.2-0.5c-0.1-0.1-0.3-0.3-0.6-0.3c-0.2,0-0.6,0-1.2,0.2c-0.5,0.1-1.2,0.1-2,0.1c-0.8,0-1.5-0.1-2-0.3
			c-0.5-0.2-0.9-0.4-1.1-0.8c-0.3-0.4-0.5-0.8-0.6-1.4c-0.1-0.5-0.2-1.1-0.3-1.8h8.2l0.1-0.3c0.1-0.2,0.1-0.5,0.1-0.9
			c0-0.4,0.1-0.7,0.1-1.1c0-0.8-0.1-1.6-0.2-2.3C128.6,119.1,128.4,118.4,128,117.9z M126.8,122.4h-6.3c0-0.5,0.1-1.1,0.2-1.5
			c0.1-0.6,0.3-1,0.6-1.4c0.3-0.4,0.6-0.7,1-0.9c0.4-0.2,1-0.3,1.6-0.3c0.6,0,1.1,0.1,1.5,0.2c0.4,0.2,0.6,0.4,0.8,0.7
			c0.2,0.3,0.4,0.7,0.4,1.2c0.1,0.5,0.1,1.1,0.1,1.8V122.4z"/>
		<path class="st0" d="M138.7,116.1c-0.6,0-1.1,0.1-1.6,0.2c-0.5,0.1-0.9,0.3-1.3,0.4c-0.4,0.2-0.7,0.4-1,0.6c0,0-0.1,0.1-0.1,0.1
			l0-0.2c0-0.5-0.3-0.8-0.8-0.8h-1.4v13.2c0,0.5,0.3,0.8,0.8,0.8h1.5v-10.6c0.1-0.1,0.3-0.3,0.5-0.5c0.2-0.2,0.5-0.4,0.8-0.6
			c0.3-0.2,0.7-0.3,1-0.4c0.4-0.1,0.8-0.2,1.2-0.2c0.8,0,1.4,0.2,1.9,0.7c0.5,0.4,0.7,1.2,0.7,2.3v8.5c0,0.5,0.3,0.8,0.8,0.8h1.5
			v-9.3c0-1.7-0.4-3-1.2-3.8C141.2,116.5,140.1,116.1,138.7,116.1z"/>
		<path class="st0" d="M79.7,117.9c-0.4-0.6-0.9-1-1.6-1.3c-0.7-0.3-1.5-0.5-2.5-0.5c-0.9,0-1.7,0.1-2.4,0.4
			c-0.7,0.3-1.3,0.7-1.8,1.3c-0.5,0.6-0.8,1.4-1.1,2.3c-0.2,0.9-0.4,2-0.4,3.3c0,1.3,0.1,2.4,0.4,3.3c0.2,0.9,0.6,1.7,1.1,2.2
			c0.5,0.6,1.2,1,1.9,1.3c0.8,0.2,1.6,0.4,2.7,0.4h0l0,0c0.8,0,1.5-0.1,2.2-0.2c0.7-0.1,1.3-0.2,1.7-0.4l0.3-0.1v-0.9
			c0-0.2-0.1-0.3-0.2-0.5c-0.1-0.1-0.3-0.3-0.6-0.3c-0.2,0-0.6,0-1.2,0.2c-0.5,0.1-1.2,0.1-2,0.1c-0.8,0-1.5-0.1-2-0.3
			c-0.5-0.2-0.9-0.4-1.1-0.8c-0.3-0.4-0.5-0.8-0.6-1.4c-0.1-0.5-0.2-1.1-0.3-1.8h8.2l0.1-0.3c0.1-0.2,0.1-0.5,0.1-0.9
			c0-0.4,0.1-0.7,0.1-1.1c0-0.8-0.1-1.6-0.2-2.3C80.4,119.1,80.1,118.4,79.7,117.9z M78.5,122.4h-6.3c0-0.5,0.1-1.1,0.2-1.5
			c0.1-0.6,0.3-1,0.6-1.4c0.3-0.4,0.6-0.7,1-0.9c0.4-0.2,1-0.3,1.6-0.3c0.6,0,1.1,0.1,1.5,0.2c0.4,0.2,0.6,0.4,0.8,0.7
			c0.2,0.3,0.4,0.7,0.4,1.2c0.1,0.5,0.1,1.1,0.1,1.8V122.4z"/>
		<path class="st0" d="M158.1,111.7c-0.5,0-0.8,0.1-1.1,0.3c-0.3,0.2-0.4,0.6-0.4,1.1c0,0.5,0.1,0.9,0.4,1.1
			c0.2,0.2,0.6,0.3,1.1,0.3c0.5,0,0.8-0.1,1.1-0.3c0.3-0.2,0.4-0.6,0.4-1.1s-0.1-0.9-0.4-1.1C159,111.8,158.6,111.7,158.1,111.7z"/>
		<path class="st0" d="M152.7,116.4H150v-2.8c0-0.5-0.3-0.8-0.8-0.8h-1.5v3.5h-1.6v1.2c0,0.5,0.3,0.8,0.8,0.8h0.8v9.1
			c0,0.4,0.1,0.8,0.2,1.2c0.1,0.4,0.3,0.7,0.6,1c0.3,0.3,0.6,0.5,1.1,0.6c0.4,0.1,0.9,0.2,1.6,0.2c0.6,0,1.3-0.1,1.9-0.2l0.3-0.1v-1
			c0-0.2-0.1-0.4-0.2-0.5c-0.1-0.2-0.4-0.2-0.7-0.2c-0.1,0-0.2,0-0.4,0c-0.2,0-0.3,0-0.5,0c-0.4,0-0.7,0-0.9-0.1
			c-0.2-0.1-0.3-0.1-0.4-0.2c-0.1-0.1-0.1-0.2-0.2-0.3c0-0.2,0-0.3,0-0.6v-8.9h3.4v-1.2C153.4,116.7,153.1,116.4,152.7,116.4z"/>
		<path class="st0" d="M85.6,111.7c-0.5,0-0.8,0.1-1.1,0.3c-0.3,0.2-0.4,0.6-0.4,1.1c0,0.5,0.1,0.9,0.4,1.1c0.2,0.2,0.6,0.3,1.1,0.3
			c0.5,0,0.8-0.1,1.1-0.3c0.3-0.2,0.4-0.6,0.4-1.1s-0.1-0.9-0.4-1.1C86.5,111.8,86.1,111.7,85.6,111.7z"/>
		<path class="st0" d="M86,116.4h-1.5v13.2c0,0.5,0.3,0.8,0.8,0.8h1.5v-13.2C86.7,116.7,86.4,116.4,86,116.4z"/>
		<path class="st0" d="M97.3,116.1c-0.6,0-1.1,0.1-1.6,0.2c-0.5,0.1-0.9,0.3-1.3,0.4c-0.4,0.2-0.7,0.4-1,0.6c0,0-0.1,0.1-0.1,0.1
			l0-0.2c0-0.5-0.3-0.8-0.8-0.8h-1.4v13.2c0,0.5,0.3,0.8,0.8,0.8h1.5v-10.6c0.1-0.1,0.3-0.3,0.5-0.5c0.2-0.2,0.5-0.4,0.8-0.6
			c0.3-0.2,0.7-0.3,1-0.4c0.4-0.1,0.8-0.2,1.2-0.2c0.8,0,1.4,0.2,1.9,0.7c0.5,0.4,0.7,1.2,0.7,2.3v8.5c0,0.5,0.3,0.8,0.8,0.8h1.5
			v-9.3c0-1.7-0.4-3-1.2-3.8C99.8,116.5,98.7,116.1,97.3,116.1z"/>
		<path class="st0" d="M158.5,116.4H157v13.2c0,0.5,0.3,0.8,0.8,0.8h1.5v-13.2C159.2,116.7,158.9,116.4,158.5,116.4z"/>
	</g>
</g>
</svg>
