<svg xmlns="http://www.w3.org/2000/svg" width="96" height="18" viewBox="0 0 96 18">
    <defs>
        <linearGradient id="a" x1="100%" x2="0%" y1="50%" y2="50%">
            <stop offset="0%" stop-color="#02C6C0"/>
            <stop offset="100%" stop-color="#1F52BA"/>
        </linearGradient>
    </defs>
    <path fill="url(#a)" fill-rule="evenodd" d="M54.751 52.245h-6.086l-5.894-15.981h5.487l3.45 10.758 3.45-10.758h5.487l-5.894 15.981zm14.16.288c-4.935 0-8.745-3.355-8.745-8.267 0-4.912 3.81-8.266 8.746-8.266 4.935 0 8.745 3.354 8.745 8.266s-3.81 8.267-8.745 8.267zm0-4.265c2.325 0 3.834-1.773 3.834-4.002 0-2.228-1.51-4.001-3.833-4.001-2.325 0-3.834 1.773-3.834 4.001 0 2.229 1.51 4.002 3.834 4.002zm21.373 3.977H79.382V36.264h4.84v11.764h6.062v4.217zm7.811 0h-4.84V40.481h-4.289v-4.217h13.394v4.217h-4.265v11.764zm20.702 0h-5.487l-.575-1.869h-5.75l-.576 1.87h-5.487l5.895-15.982h6.086l5.894 15.981zm-78.658-3.387h2.082a.644.644 0 0 1 1.082-.47l1.122 1.044a2 2 0 0 1-.091 3.007l-1.193.983a.562.562 0 0 1-.92-.434H32.595c-4.856 0-8.793-3.803-8.793-8.494S27.74 36 32.595 36c4.855 0 8.792 3.803 8.792 8.494a8.24 8.24 0 0 1-1.248 4.364zm71.302-2.699h-3.163l1.582-5.151 1.581 5.151zm-78.89 2.496a4.148 4.148 0 1 0 0-8.296 4.148 4.148 0 0 0 0 8.296z" transform="translate(-23 -36)"/>
</svg>
