<?xml version="1.0" encoding="UTF-8" standalone="no"?>
<svg width="244px" height="85px" viewBox="0 0 244 85" version="1.1" xmlns="http://www.w3.org/2000/svg" xmlns:xlink="http://www.w3.org/1999/xlink">
    <!-- Generator: Sketch 39 (31667) - http://www.bohemiancoding.com/sketch -->
    <title>Group</title>
    <desc>Created with Sketch.</desc>
    <defs></defs>
    <g id="Page-1" stroke="none" stroke-width="1" fill="none" fill-rule="evenodd">
        <g id="Artboard" transform="translate(-886.000000, -525.000000)" fill="#FFFFFF">
            <g id="Group" transform="translate(886.000000, 525.000000)">
                <path d="M2.376,85 L7.488,85 L7.488,74.992 L19.116,74.992 L19.116,70.6 L7.488,70.6 L7.488,65.38 L19.368,65.38 L19.368,60.988 L2.376,60.988 L2.376,85 Z M24.832,85 L29.944,85 L29.944,60.988 L24.832,60.988 L24.832,85 Z M52.256,85 L58.376,85 L49.664,72.652 L57.836,60.988 L51.68,60.988 L46.244,69.196 L40.736,60.988 L34.652,60.988 L42.824,72.688 L34.112,85 L40.196,85 L46.244,76.216 L52.256,85 Z M73.6599999,85 L78.7719999,85 L78.7719999,60.988 L73.6599999,60.988 L73.6599999,85 Z M85.4239999,85 L94.8919999,85 C102.416,85 107.636,80.248 107.636,73.012 C107.636,65.776 102.416,60.988 94.8919999,60.988 L85.4239999,60.988 L85.4239999,85 Z M90.5359999,80.5 L90.5359999,65.488 L94.8919999,65.488 C99.8239999,65.488 102.416,68.764 102.416,73.012 C102.416,77.08 99.6439999,80.5 94.8919999,80.5 L90.5359999,80.5 Z M129.832,85 L134.98,85 L134.98,65.488 L141.964,65.488 L141.964,60.988 L122.812,60.988 L122.812,65.488 L129.832,65.488 L129.832,85 Z M163.592,85 L168.74,85 L168.74,60.988 L163.592,60.988 L163.592,70.42 L152.252,70.42 L152.252,60.988 L147.14,60.988 L147.14,85 L152.252,85 L152.252,74.92 L163.592,74.92 L163.592,85 Z M175.356,85 L192.348,85 L192.348,80.572 L180.468,80.572 L180.468,74.992 L192.096,74.992 L192.096,70.6 L180.468,70.6 L180.468,65.38 L192.348,65.38 L192.348,60.988 L175.356,60.988 L175.356,85 Z M198.244,85 L203.356,85 L203.356,74.992 L214.984,74.992 L214.984,70.6 L203.356,70.6 L203.356,65.38 L215.236,65.38 L215.236,60.988 L198.244,60.988 L198.244,85 Z M226.244,85 L231.392,85 L231.392,65.488 L238.376,65.488 L238.376,60.988 L219.224,60.988 L219.224,65.488 L226.244,65.488 L226.244,85 Z" id="FIX-ID-THEFT-Copy"></path>
                <path d="M13.88,17 L17.504,17 L22.064,0.992 L18.224,0.992 L15.44,12.56 L12.416,0.992 L9.752,0.992 L6.704,12.56 L3.896,0.992 L0.08,0.992 L4.664,17 L8.288,17 L11.072,6.008 L13.88,17 Z M25.672,17 L37,17 L37,14.048 L29.08,14.048 L29.08,10.328 L36.832,10.328 L36.832,7.4 L29.08,7.4 L29.08,3.92 L37,3.92 L37,0.992 L25.672,0.992 L25.672,17 Z M49.808,17 L56.12,17 C61.136,17 64.616,13.832 64.616,9.008 C64.616,4.184 61.136,0.992 56.12,0.992 L49.808,0.992 L49.808,17 Z M53.216,14 L53.216,3.992 L56.12,3.992 C59.408,3.992 61.136,6.176 61.136,9.008 C61.136,11.72 59.288,14 56.12,14 L53.216,14 Z M69.04,17 L80.368,17 L80.368,14.048 L72.448,14.048 L72.448,10.328 L80.2,10.328 L80.2,7.4 L72.448,7.4 L72.448,3.92 L80.368,3.92 L80.368,0.992 L69.04,0.992 L69.04,17 Z M88.728,17 L92.16,17 L92.16,3.992 L96.816,3.992 L96.816,0.992 L84.048,0.992 L84.048,3.992 L88.728,3.992 L88.728,17 Z M101,17 L112.328,17 L112.328,14.048 L104.408,14.048 L104.408,10.328 L112.16,10.328 L112.16,7.4 L104.408,7.4 L104.408,3.92 L112.328,3.92 L112.328,0.992 L101,0.992 L101,17 Z M124.624,17.288 C128.272,17.288 130.288,15.344 131.44,13.352 L128.512,11.936 C127.84,13.256 126.4,14.264 124.624,14.264 C121.84,14.264 119.728,12.032 119.728,9.008 C119.728,5.984 121.84,3.752 124.624,3.752 C126.4,3.752 127.84,4.784 128.512,6.08 L131.44,4.64 C130.312,2.648 128.272,0.728 124.624,0.728 C119.944,0.728 116.224,4.088 116.224,9.008 C116.224,13.928 119.944,17.288 124.624,17.288 L124.624,17.288 Z M139.176,17 L142.608,17 L142.608,3.992 L147.264,3.992 L147.264,0.992 L134.496,0.992 L134.496,3.992 L139.176,3.992 L139.176,17 Z M150.224,20.288 C151.688,19.232 152.696,17.624 152.696,15.824 C152.696,14.264 151.664,13.376 150.536,13.376 C149.528,13.376 148.664,14.24 148.664,15.296 C148.664,16.328 149.384,17.048 150.296,17.048 C150.464,17.048 150.68,17 150.752,16.976 C150.56,17.816 149.672,18.8 148.904,19.208 L150.224,20.288 Z M176.616,17 L180.336,17 L174.168,0.992 L169.896,0.992 L163.704,17 L167.448,17 L168.456,14.24 L175.608,14.24 L176.616,17 Z M172.032,3.944 L174.672,11.288 L169.368,11.288 L172.032,3.944 Z M183.824,17 L194,17 L194,14 L187.232,14 L187.232,0.992 L183.824,0.992 L183.824,17 Z M198.376,17 L209.704,17 L209.704,14.048 L201.784,14.048 L201.784,10.328 L209.536,10.328 L209.536,7.4 L201.784,7.4 L201.784,3.92 L209.704,3.92 L209.704,0.992 L198.376,0.992 L198.376,17 Z M223.416,17 L227.328,17 L223.728,10.904 C225.456,10.496 227.232,8.984 227.232,6.152 C227.232,3.176 225.192,0.992 221.856,0.992 L214.368,0.992 L214.368,17 L217.776,17 L217.776,11.264 L220.272,11.264 L223.416,17 Z M223.752,6.128 C223.752,7.472 222.72,8.336 221.352,8.336 L217.776,8.336 L217.776,3.92 L221.352,3.92 C222.72,3.92 223.752,4.784 223.752,6.128 L223.752,6.128 Z M235.256,17 L238.688,17 L238.688,3.992 L243.344,3.992 L243.344,0.992 L230.576,0.992 L230.576,3.992 L235.256,3.992 L235.256,17 Z M62.14,42.76 C63.076,41.56 63.796,40.192 64.372,38.92 L61.924,37.792 C61.66,38.728 61.156,39.856 60.46,40.888 C60.004,40.36 59.572,39.832 59.116,39.256 C58.708,38.776 58.204,38.176 57.748,37.528 C59.716,36.616 61.66,35.584 61.66,33.136 C61.66,31 59.716,29.752 57.46,29.752 C54.796,29.752 52.876,31.432 52.876,33.592 C52.876,34.672 53.308,35.848 53.956,37.024 C52.108,37.96 50.5,39.208 50.5,41.656 C50.5,44.752 52.852,46.288 55.78,46.288 C57.508,46.288 58.948,45.712 60.148,44.8 C60.604,45.256 61.012,45.688 61.348,46 L65.236,46 C64.108,44.872 63.1,43.816 62.14,42.76 L62.14,42.76 Z M55.924,33.664 C55.924,32.68 56.668,31.96 57.604,31.96 C58.396,31.96 59.02,32.464 59.02,33.304 C59.02,34.48 57.988,35.176 56.62,35.8 C56.212,35.056 55.924,34.312 55.924,33.664 L55.924,33.664 Z M56.212,43.888 C54.892,43.888 53.74,42.928 53.74,41.368 C53.74,40.264 54.292,39.52 55.132,38.92 C55.66,39.664 56.212,40.384 56.74,41.032 C57.124,41.512 57.796,42.256 58.516,43.048 C57.82,43.552 57.028,43.888 56.212,43.888 L56.212,43.888 Z M89.396,46 L93.02,46 L97.58,29.992 L93.74,29.992 L90.956,41.56 L87.932,29.992 L85.268,29.992 L82.22,41.56 L79.412,29.992 L75.596,29.992 L80.18,46 L83.804,46 L86.588,35.008 L89.396,46 Z M99.94,38.008 C99.94,42.832 103.468,46.288 108.292,46.288 C113.14,46.288 116.668,42.832 116.668,38.008 C116.668,33.184 113.14,29.728 108.292,29.728 C103.468,29.728 99.94,33.184 99.94,38.008 L99.94,38.008 Z M113.164,38.008 C113.164,40.984 111.244,43.264 108.292,43.264 C105.34,43.264 103.444,40.984 103.444,38.008 C103.444,35.008 105.34,32.752 108.292,32.752 C111.244,32.752 113.164,35.008 113.164,38.008 L113.164,38.008 Z M130.116,46 L134.028,46 L130.428,39.904 C132.156,39.496 133.932,37.984 133.932,35.152 C133.932,32.176 131.892,29.992 128.556,29.992 L121.068,29.992 L121.068,46 L124.476,46 L124.476,40.264 L126.972,40.264 L130.116,46 Z M130.452,35.128 C130.452,36.472 129.42,37.336 128.052,37.336 L124.476,37.336 L124.476,32.92 L128.052,32.92 C129.42,32.92 130.452,33.784 130.452,35.128 L130.452,35.128 Z M148.004,46 L152.204,46 L145.412,37.504 L151.772,29.992 L147.572,29.992 L141.908,37.144 L141.908,29.992 L138.5,29.992 L138.5,46 L141.908,46 L141.908,41.08 L143.156,39.592 L148.004,46 Z M167.604,46 L171.036,46 L171.036,32.992 L175.692,32.992 L175.692,29.992 L162.924,29.992 L162.924,32.992 L167.604,32.992 L167.604,46 Z M178.532,38.008 C178.532,42.832 182.06,46.288 186.884,46.288 C191.732,46.288 195.26,42.832 195.26,38.008 C195.26,33.184 191.732,29.728 186.884,29.728 C182.06,29.728 178.532,33.184 178.532,38.008 L178.532,38.008 Z M191.756,38.008 C191.756,40.984 189.836,43.264 186.884,43.264 C183.932,43.264 182.036,40.984 182.036,38.008 C182.036,35.008 183.932,32.752 186.884,32.752 C189.836,32.752 191.756,35.008 191.756,38.008 L191.756,38.008 Z" id="t"></path>
            </g>
        </g>
    </g>
</svg>