<?xml version="1.0" encoding="UTF-8"?>
<svg width="208px" height="10px" viewBox="0 0 208 10" version="1.1" xmlns="http://www.w3.org/2000/svg" xmlns:xlink="http://www.w3.org/1999/xlink">
    <!-- Generator: Sketch 44.1 (41455) - http://www.bohemiancoding.com/sketch -->
    <title>15% OFF + 60 DAYS RI Copy</title>
    <desc>Created with Sketch.</desc>
    <defs></defs>
    <g id="Page-1" stroke="none" stroke-width="1" fill="none" fill-rule="evenodd">
        <g id="Artboard" transform="translate(-44.000000, -155.000000)" fill="#FFFFFF">
            <g id="Group">
                <g id="Group-2" transform="translate(31.000000, 151.000000)">
                    <path d="M16.113,13 L17.959,13 L17.959,4.329 L16.347,4.329 L13.617,7.072 L14.67,8.177 L16.113,6.708 L16.113,13 Z M20.454,11.856 C21.195,12.662 22.287,13.156 23.795,13.156 C25.888,13.156 27.266,11.999 27.266,10.166 C27.266,8.411 25.953,7.358 24.484,7.358 C23.691,7.358 22.989,7.683 22.534,8.086 L22.534,5.915 L26.681,5.915 L26.681,4.329 L20.727,4.329 L20.727,9.282 L22.014,9.633 C22.534,9.139 23.119,8.918 23.834,8.918 C24.822,8.918 25.394,9.451 25.394,10.244 C25.394,10.959 24.809,11.544 23.782,11.544 C22.872,11.544 22.066,11.219 21.468,10.608 L20.454,11.856 Z M29.059,6.383 C29.059,5.161 29.93,4.199 31.256,4.199 C32.595,4.199 33.466,5.161 33.466,6.383 C33.466,7.592 32.595,8.515 31.256,8.515 C29.93,8.515 29.059,7.592 29.059,6.383 Z M30.411,13 L35.949,4.329 L36.937,4.329 L31.386,13 L30.411,13 Z M32.283,6.383 C32.283,5.655 31.854,5.226 31.256,5.226 C30.671,5.226 30.229,5.655 30.229,6.383 C30.229,7.059 30.671,7.501 31.256,7.501 C31.854,7.501 32.283,7.059 32.283,6.383 Z M33.83,11.011 C33.83,9.789 34.701,8.827 36.027,8.827 C37.353,8.827 38.237,9.789 38.237,11.011 C38.237,12.22 37.353,13.156 36.027,13.156 C34.701,13.156 33.83,12.22 33.83,11.011 Z M37.067,11.011 C37.067,10.296 36.625,9.854 36.027,9.854 C35.429,9.854 35,10.296 35,11.011 C35,11.713 35.429,12.142 36.027,12.142 C36.625,12.142 37.067,11.713 37.067,11.011 Z M44.332,8.671 C44.332,6.058 46.243,4.186 48.856,4.186 C51.482,4.186 53.393,6.058 53.393,8.671 C53.393,11.284 51.482,13.156 48.856,13.156 C46.243,13.156 44.332,11.284 44.332,8.671 Z M51.495,8.671 C51.495,7.046 50.455,5.824 48.856,5.824 C47.257,5.824 46.23,7.046 46.23,8.671 C46.23,10.283 47.257,11.518 48.856,11.518 C50.455,11.518 51.495,10.283 51.495,8.671 Z M55.693,13 L57.539,13 L57.539,9.386 L61.738,9.386 L61.738,7.8 L57.539,7.8 L57.539,5.915 L61.829,5.915 L61.829,4.329 L55.693,4.329 L55.693,13 Z M64.116,13 L65.962,13 L65.962,9.386 L70.161,9.386 L70.161,7.8 L65.962,7.8 L65.962,5.915 L70.252,5.915 L70.252,4.329 L64.116,4.329 L64.116,13 Z M79.857,9.126 L82.184,9.126 L82.184,8.099 L79.857,8.099 L79.857,5.564 L78.726,5.564 L78.726,8.099 L76.386,8.099 L76.386,9.126 L78.726,9.126 L78.726,11.765 L79.857,11.765 L79.857,9.126 Z M88.331,8.684 C88.331,6.058 89.813,4.199 92.374,4.199 C93.427,4.199 94.311,4.563 94.935,5.096 L94.103,6.487 C93.635,6.045 93.141,5.798 92.374,5.798 C91.061,5.798 90.203,6.929 90.203,8.307 C90.203,8.372 90.203,8.437 90.216,8.489 C90.619,7.904 91.49,7.384 92.439,7.384 C93.999,7.384 95.39,8.333 95.39,10.179 C95.39,11.869 94.051,13.156 92.075,13.156 C89.436,13.156 88.331,11.128 88.331,8.684 Z M93.518,10.257 C93.518,9.321 92.751,8.918 91.906,8.918 C91.256,8.918 90.632,9.243 90.216,9.75 C90.294,10.582 90.762,11.544 91.984,11.544 C92.985,11.544 93.518,10.868 93.518,10.257 Z M97.235,8.671 C97.235,6.435 98.34,4.199 100.823,4.199 C103.293,4.199 104.411,6.435 104.411,8.671 C104.411,10.907 103.293,13.156 100.823,13.156 C98.34,13.156 97.235,10.907 97.235,8.671 Z M102.526,8.671 C102.526,7.072 102.058,5.837 100.823,5.837 C99.575,5.837 99.107,7.072 99.107,8.671 C99.107,10.27 99.575,11.518 100.823,11.518 C102.058,11.518 102.526,10.27 102.526,8.671 Z M111.039,13 L111.039,4.329 L114.458,4.329 C117.175,4.329 119.06,6.058 119.06,8.671 C119.06,11.284 117.175,13 114.458,13 L111.039,13 Z M112.885,11.375 L114.458,11.375 C116.174,11.375 117.175,10.14 117.175,8.671 C117.175,7.137 116.239,5.954 114.458,5.954 L112.885,5.954 L112.885,11.375 Z M127.002,13 L126.456,11.505 L122.582,11.505 L122.036,13 L120.008,13 L123.362,4.329 L125.676,4.329 L129.017,13 L127.002,13 Z M124.519,5.928 L123.076,9.906 L125.949,9.906 L124.519,5.928 Z M132.37,13 L134.216,13 L134.216,9.451 L137.531,4.329 L135.425,4.329 L133.293,7.813 L131.135,4.329 L129.029,4.329 L132.37,9.451 L132.37,13 Z M138.492,11.778 C139.298,12.597 140.494,13.156 142.158,13.156 C144.498,13.156 145.629,11.96 145.629,10.374 C145.629,8.45 143.809,8.021 142.379,7.696 C141.378,7.462 140.65,7.28 140.65,6.695 C140.65,6.175 141.092,5.811 141.924,5.811 C142.769,5.811 143.705,6.11 144.407,6.76 L145.434,5.408 C144.576,4.615 143.432,4.199 142.054,4.199 C140.013,4.199 138.765,5.369 138.765,6.812 C138.765,8.749 140.585,9.139 142.002,9.464 C143.003,9.698 143.757,9.919 143.757,10.569 C143.757,11.063 143.263,11.544 142.249,11.544 C141.053,11.544 140.104,11.011 139.493,10.374 L138.492,11.778 Z M157.106,13 L155.403,9.893 L154.051,9.893 L154.051,13 L152.205,13 L152.205,4.329 L156.261,4.329 C158.068,4.329 159.173,5.512 159.173,7.124 C159.173,8.658 158.211,9.477 157.275,9.698 L159.225,13 L157.106,13 Z M157.288,7.111 C157.288,6.383 156.729,5.915 155.988,5.915 L154.051,5.915 L154.051,8.307 L155.988,8.307 C156.729,8.307 157.288,7.839 157.288,7.111 Z M161.564,13 L163.41,13 L163.41,4.329 L161.564,4.329 L161.564,13 Z M165.541,11.778 C166.347,12.597 167.543,13.156 169.207,13.156 C171.547,13.156 172.678,11.96 172.678,10.374 C172.678,8.45 170.858,8.021 169.428,7.696 C168.427,7.462 167.699,7.28 167.699,6.695 C167.699,6.175 168.141,5.811 168.973,5.811 C169.818,5.811 170.754,6.11 171.456,6.76 L172.483,5.408 C171.625,4.615 170.481,4.199 169.103,4.199 C167.062,4.199 165.814,5.369 165.814,6.812 C165.814,8.749 167.634,9.139 169.051,9.464 C170.052,9.698 170.806,9.919 170.806,10.569 C170.806,11.063 170.312,11.544 169.298,11.544 C168.102,11.544 167.153,11.011 166.542,10.374 L165.541,11.778 Z M180.074,13 L182.349,13 L178.67,8.398 L182.115,4.329 L179.84,4.329 L176.772,8.203 L176.772,4.329 L174.926,4.329 L174.926,13 L176.772,13 L176.772,10.335 L177.448,9.529 L180.074,13 Z M183.076,10.556 L186.196,10.556 L186.196,9.152 L183.076,9.152 L183.076,10.556 Z M188.444,13 L190.29,13 L190.29,9.386 L194.489,9.386 L194.489,7.8 L190.29,7.8 L190.29,5.915 L194.58,5.915 L194.58,4.329 L188.444,4.329 L188.444,13 Z M201.768,13 L200.065,9.893 L198.713,9.893 L198.713,13 L196.867,13 L196.867,4.329 L200.923,4.329 C202.73,4.329 203.835,5.512 203.835,7.124 C203.835,8.658 202.873,9.477 201.937,9.698 L203.887,13 L201.768,13 Z M201.95,7.111 C201.95,6.383 201.391,5.915 200.65,5.915 L198.713,5.915 L198.713,8.307 L200.65,8.307 C201.391,8.307 201.95,7.839 201.95,7.111 Z M206.226,13 L212.362,13 L212.362,11.401 L208.072,11.401 L208.072,9.386 L212.271,9.386 L212.271,7.8 L208.072,7.8 L208.072,5.915 L212.362,5.915 L212.362,4.329 L206.226,4.329 L206.226,13 Z M214.805,13 L220.941,13 L220.941,11.401 L216.651,11.401 L216.651,9.386 L220.85,9.386 L220.85,7.8 L216.651,7.8 L216.651,5.915 L220.941,5.915 L220.941,4.329 L214.805,4.329 L214.805,13 Z" id="15%-OFF-+-60-DAYS-RI-Copy"></path>
                </g>
            </g>
        </g>
    </g>
</svg>