<?xml version="1.0" encoding="utf-8"?>
<!-- Generator: Adobe Illustrator 20.1.0, SVG Export Plug-In . SVG Version: 6.00 Build 0)  -->
<svg version="1.1" id="Layer_1" xmlns="http://www.w3.org/2000/svg" xmlns:xlink="http://www.w3.org/1999/xlink" x="0px" y="0px"
	 viewBox="0 0 228.1 59.8" style="enable-background:new 0 0 228.1 59.8;" xml:space="preserve">
<style type="text/css">
	.st0{fill:#FFFFFF;}
	.st1{fill:#CC092F;}
</style>
<title>llLogo</title>
<g id="Layer_2">
	<g id="Layer_1-2">
		<path class="st0" d="M225.9,12.3c-1.1,0-2.1-0.9-2.1-2c0,0,0-0.1,0-0.1c0-1.2,1-2.2,2.2-2.2c1.2,0,2.1,1,2.1,2.2
			c0,1.1-0.8,2.1-2,2.1C226,12.3,226,12.3,225.9,12.3 M225.9,8.3c-1,0-1.8,0.8-1.9,1.8c0,0,0,0.1,0,0.1c0,1,0.8,1.9,1.9,1.9
			s1.9-0.8,1.9-1.9l0,0c0-1-0.7-1.8-1.7-1.9C226,8.3,226,8.3,225.9,8.3 M226.3,10.3l0.5,1h-0.4l-0.5-1h-0.5v1h-0.3V8.9h1
			c0.4,0,0.7,0.2,0.8,0.6c0,0,0,0.1,0,0.1C226.9,9.9,226.7,10.2,226.3,10.3 M226.1,9.2h-0.6V10h0.6c0.3,0,0.5-0.1,0.5-0.4
			S226.4,9.2,226.1,9.2"/>
		<polygon class="st0" points="53.4,30.1 69.2,30.1 69.2,36.2 45.6,36.2 45.6,3 53.4,3 		"/>
		<rect x="72.5" y="10.1" class="st0" width="7.2" height="26.1"/>
		<rect x="72.5" y="0.2" class="st0" width="7.2" height="6.3"/>
		<path class="st0" d="M87.3,36.2V15.8h-3.9v-5.7h3.9V8.9c0-3.3,0.4-5,1.5-6.1s2.3-1.6,5.1-1.6h6v5.5h-3.5c-0.9,0-1.2,0.1-1.5,0.3
			s-0.3,0.8-0.3,2.1v1h5.4v5.7h-5.3v20.5H87.3z"/>
		<path class="st0" d="M108.9,25.2c0,4.1,0.3,4.9,0.6,5.2s1.1,0.5,2.3,0.5h4.4c1.5,0,1.8-0.1,2.1-0.5s0.3-0.5,0.4-2.4h6.7
			c0,3.9-0.5,5.4-1.8,6.7c-0.8,0.8-1.8,1.5-4.7,1.5h-9.7c-2.7,0-4-0.4-5.2-1.6c-1.7-1.7-2.4-3.8-2.4-11.4s0.7-9.7,2.4-11.5
			c1.1-1.1,2.5-1.6,5.2-1.6h8.8c2.7,0,4.1,0.4,5.2,1.6c1.7,1.7,2.1,3.8,2.1,11.2v1.2c0,0.8-0.2,1-1,1L108.9,25.2z M108.9,20.7h9.6
			c0-3.5-0.2-4.5-0.6-4.8s-0.7-0.4-2.2-0.4h-3.9c-1.2,0-2,0.1-2.3,0.5S109,17.1,108.9,20.7"/>
		<polygon class="st0" points="133.4,33 150.3,33 150.3,36.2 129.7,36.2 129.7,3 133.4,3 		"/>
		<path class="st0" d="M154.8,34.8c-1.6-1.6-2.2-3.7-2.2-11.3s0.6-9.6,2.2-11.2c1.1-1.1,2.6-1.4,5.2-1.4h6.6c2.6,0,4.1,0.3,5.1,1.4
			c1.7,1.6,2.2,3.7,2.2,11.2s-0.6,9.7-2.2,11.3c-1,1.1-2.6,1.4-5.1,1.4h-6.6C157.3,36.2,155.9,35.9,154.8,34.8 M157.2,32.4
			c0.6,0.5,1.3,0.7,3.1,0.7h5.9c1.8,0,2.5-0.2,3-0.7c0.8-0.8,1.2-2,1.2-8.9s-0.4-8.1-1.2-8.8c-0.5-0.6-1.2-0.7-3-0.7h-5.9
			c-1.8,0-2.5,0.1-3.1,0.7c-0.8,0.8-1.1,2-1.1,8.8S156.5,31.6,157.2,32.4"/>
		<path class="st0" d="M198,27.6c-0.1,4.6-0.6,6.1-1.9,7.3c-0.9,0.9-2.1,1.3-4.5,1.3h-6.7c-2.6,0-4.1-0.3-5.2-1.4
			c-1.6-1.6-2.2-3.7-2.2-11.3s0.6-9.6,2.2-11.2c1.1-1.1,2.6-1.4,5.2-1.4h6.6c2.5,0,3.6,0.3,4.6,1.3c1.2,1.2,1.7,2.8,1.8,7h-3.4
			c-0.1-3.2-0.4-4-0.9-4.5s-1.1-0.6-2.7-0.6h-5.6c-1.8,0-2.5,0.1-3.1,0.7c-0.8,0.8-1.1,2-1.1,8.8s0.4,8.1,1.1,8.9
			c0.6,0.5,1.3,0.7,3.1,0.7h5.6c1.6,0,2.2-0.1,2.8-0.7s0.9-1.6,0.9-4.8L198,27.6z"/>
		<polygon class="st0" points="201.9,36.2 201.9,2 205.4,2 205.4,21.9 208,21.9 217.4,10.8 221.6,10.8 210.8,23.2 222,36.2 
			217.6,36.2 207.9,24.9 205.4,24.9 205.4,36.2 		"/>
		<path class="st1" d="M35.6,3.2C32.9,0.6,27,0,19.4,0S6,0.6,3.2,3.2S0,9.9,0,19.3s0.4,13.5,3.2,16.1s8.7,3.2,16.2,3.2
			s13.4-0.6,16.2-3.2s3.2-6.7,3.2-16.1S38.4,5.8,35.6,3.2"/>
		<path class="st0" d="M24.2,9.4h-2c0-1.5-1.2-2.7-2.7-2.7c-1.5,0-2.7,1.2-2.7,2.7c0,0,0,0,0,0h-2c0-2.6,2.1-4.8,4.8-4.8
			S24.2,6.8,24.2,9.4"/>
		<path class="st0" d="M12.7,11.1v12.1h2.2v10.1h3.4V26h2.3v7.3h3.4V23.2h2.2V11.1H12.7z M20.2,17.4v2.8h-1.6v-2.8
			c-0.9-0.4-1.2-1.5-0.8-2.4s1.5-1.2,2.4-0.8s1.2,1.5,0.8,2.4C20.8,17,20.5,17.2,20.2,17.4"/>
	</g>
</g>
</svg>
