<svg xmlns="http://www.w3.org/2000/svg" width="242.5" height="111.98" viewBox="0 0 242.5 111.98"><defs><style>.cls-1{fill:#fff;}</style></defs><title>tag1</title><g id="Layer_2" data-name="Layer 2"><g id="Layer_2-2" data-name="Layer 2"><path class="cls-1" d="M6.13,3.81H.67V.31h14.9v3.5H10.14V19h-4Z"/><path class="cls-1" d="M32,11.14H23.15V19h-4V.31h4V7.64H32V.31h4V19H32Z"/><path class="cls-1" d="M41.26.31H54.48V3.72H45.24V7.78h9V11.2h-9v4.34h9.24V19H41.26Z"/><path class="cls-1" d="M66.25,12.29H63.34V19h-4V.31H68.1c3.89,0,6.27,2.55,6.27,6a5.36,5.36,0,0,1-4.09,5.54L74.48,19H69.92Zm1.26-8.57H63.34V8.88h4.17a2.59,2.59,0,1,0,0-5.15Z"/><path class="cls-1" d="M78.87.31H92.09V3.72H82.85V7.78h9V11.2h-9v4.34h9.24V19H78.87Z"/><path class="cls-1" d="M96.65,6.83A4.72,4.72,0,0,0,98.8,4.17a1.26,1.26,0,0,1-.53.11,1.92,1.92,0,0,1-1.9-2A2.24,2.24,0,0,1,98.55,0a2.6,2.6,0,0,1,2.52,2.86,6.53,6.53,0,0,1-2.88,5.21Z"/><path class="cls-1" d="M106.55,13.33a8.19,8.19,0,0,0,5.94,2.52c2.18,0,3.25-1,3.25-2.1,0-1.4-1.62-1.88-3.78-2.38-3.05-.7-7-1.54-7-5.71C105,2.55,107.67,0,112.06,0a10.39,10.39,0,0,1,7.28,2.6l-2.21,2.91a8,8,0,0,0-5.35-2C110,3.5,109,4.28,109,5.4s1.57,1.65,3.72,2.16c3.08.7,7,1.62,7,5.77,0,3.42-2.44,6-7.48,6a10.65,10.65,0,0,1-7.9-3Z"/><path class="cls-1" d="M136.67,6.44V19h-4V.31h4.09l8.65,12.1V.31h4V19h-3.84Z"/><path class="cls-1" d="M163.51,0a9.38,9.38,0,0,1,9.77,9.66,9.76,9.76,0,0,1-19.52,0A9.38,9.38,0,0,1,163.51,0Zm0,3.53c-3.44,0-5.66,2.63-5.66,6.13s2.21,6.13,5.66,6.13,5.68-2.66,5.68-6.13S167,3.53,163.51,3.53Z"/><path class="cls-1" d="M5.8,37.44V50h-4V31.31H5.91l8.65,12.1V31.31h4V50H14.7Z"/><path class="cls-1" d="M23.84,31.31H37.05v3.42H27.81v4.06h9V42.2h-9v4.34h9.24V50H23.84Z"/><path class="cls-1" d="M42,31.31h4V50H42Z"/><path class="cls-1" d="M60.18,31a8.75,8.75,0,0,1,7.73,4.09l-3.3,1.79a5.3,5.3,0,0,0-4.42-2.35,5.82,5.82,0,0,0-5.85,6.13,5.82,5.82,0,0,0,5.85,6.13,6.31,6.31,0,0,0,4-1.43V43.1h-5V39.68h8.9v7.14a10.37,10.37,0,0,1-8,3.53c-5.46,0-9.94-3.81-9.94-9.69S54.72,31,60.18,31Z"/><path class="cls-1" d="M85.76,42.14H76.94V50H73V31.31h4v7.34h8.82V31.31h4V50h-4Z"/><path class="cls-1" d="M95.06,31.31h9.83c3.56,0,5.38,2.27,5.38,4.76A4.15,4.15,0,0,1,107,40.35a4.53,4.53,0,0,1,3.58,4.59c0,2.8-1.88,5-5.43,5H95.06Zm9,7.5a2.06,2.06,0,1,0,0-4.12H99v4.12Zm.14,7.78a2.15,2.15,0,0,0,2.41-2.21,2.18,2.18,0,0,0-2.41-2.18H99v4.4Z"/><path class="cls-1" d="M123.84,31a9.38,9.38,0,0,1,9.77,9.66,9.76,9.76,0,0,1-19.52,0A9.38,9.38,0,0,1,123.84,31Zm0,3.53c-3.44,0-5.66,2.63-5.66,6.13s2.21,6.13,5.66,6.13,5.68-2.66,5.68-6.13S127.29,34.53,123.84,34.53Z"/><path class="cls-1" d="M144.81,43.29H141.9V50h-4V31.31h8.74c3.89,0,6.27,2.55,6.27,6a5.36,5.36,0,0,1-4.09,5.54L153,50h-4.56Zm1.26-8.57H141.9v5.15h4.17a2.59,2.59,0,1,0,0-5.15Z"/><path class="cls-1" d="M170.23,42.14h-8.82V50h-4V31.31h4v7.34h8.82V31.31h4V50h-4Z"/><path class="cls-1" d="M188.31,31a9.38,9.38,0,0,1,9.77,9.66,9.76,9.76,0,0,1-19.52,0A9.38,9.38,0,0,1,188.31,31Zm0,3.53c-3.44,0-5.66,2.63-5.66,6.13s2.21,6.13,5.66,6.13S194,44.13,194,40.66,191.76,34.53,188.31,34.53Z"/><path class="cls-1" d="M211.15,31a9.38,9.38,0,0,1,9.77,9.66,9.76,9.76,0,0,1-19.52,0A9.38,9.38,0,0,1,211.15,31Zm0,3.53c-3.44,0-5.66,2.63-5.66,6.13s2.21,6.13,5.66,6.13,5.68-2.66,5.68-6.13S214.59,34.53,211.15,34.53Z"/><path class="cls-1" d="M225.22,31.31h7.36c5.85,0,9.91,3.72,9.91,9.35S238.44,50,232.59,50h-7.36Zm7.36,15.18a5.59,5.59,0,0,0,5.85-5.82c0-3.3-2-5.85-5.85-5.85H229.2V46.48Z"/><path class="cls-1" d="M12.82,68.16,9.58,81H5.35L0,62.31H4.45L7.73,75.8l3.56-13.5h3.11l3.53,13.5,3.25-13.5h4.48L20.33,81H16.1Z"/><path class="cls-1" d="M39.85,77.76H31.51L30.33,81H26l7.22-18.68h5L45.37,81H41Zm-7.28-3.44h6.19l-3.08-8.57Z"/><path class="cls-1" d="M50.73,65.81H45.27v-3.5h14.9v3.5H54.74V81h-4Z"/><path class="cls-1" d="M62.55,71.66A9.45,9.45,0,0,1,72.35,62a8.62,8.62,0,0,1,8,4.56l-3.42,1.68a5.12,5.12,0,0,0-4.54-2.72c-3.25,0-5.71,2.6-5.71,6.13s2.46,6.13,5.71,6.13a5.06,5.06,0,0,0,4.54-2.72l3.42,1.65a8.67,8.67,0,0,1-8,4.59A9.45,9.45,0,0,1,62.55,71.66Z"/><path class="cls-1" d="M96.93,73.14H88.11V81h-4V62.31h4v7.34h8.82V62.31h4V81h-4Z"/><path class="cls-1" d="M114.85,62.31h13.22v3.42h-9.24v4.06h9V73.2h-9V81h-4Z"/><path class="cls-1" d="M141,62a9.66,9.66,0,1,1-9.74,9.66A9.38,9.38,0,0,1,141,62Zm0,3.53c-3.44,0-5.66,2.63-5.66,6.13s2.21,6.13,5.66,6.13,5.68-2.66,5.68-6.13S144.43,65.53,141,65.53Z"/><path class="cls-1" d="M162,74.29H159V81h-4V62.31h8.74c3.89,0,6.27,2.55,6.27,6A5.36,5.36,0,0,1,166,73.87l4.2,7.11h-4.56Zm1.26-8.57H159v5.15h4.17a2.58,2.58,0,1,0,0-5.15Z"/><path class="cls-1" d="M1.82,93.31h4V112h-4Z"/><path class="cls-1" d="M11.05,93.31h7.36c5.85,0,9.91,3.72,9.91,9.35S24.27,112,18.42,112H11.05Zm7.36,15.18a5.59,5.59,0,0,0,5.85-5.82c0-3.3-2-5.85-5.85-5.85H15v11.68Z"/><path class="cls-1" d="M32.64,93.31H45.85v3.42H36.61v4.06h9v3.42h-9v4.34h9.24V112H32.64Z"/><path class="cls-1" d="M54.71,99.44V112h-4V93.31h4.09l8.65,12.1V93.31h4V112H63.62Z"/><path class="cls-1" d="M76.53,96.81H71.07v-3.5H86v3.5H80.54V112h-4Z"/><path class="cls-1" d="M89.57,93.31h4V112h-4Z"/><path class="cls-1" d="M102.58,96.81H97.12v-3.5H112v3.5h-5.43V112h-4Z"/><path class="cls-1" d="M121.86,104.34l-7.2-11h4.54l4.65,7.5,4.59-7.5H133l-7.14,11V112h-4Z"/><path class="cls-1" d="M149.28,96.81h-5.46v-3.5h14.9v3.5h-5.43V112h-4Z"/><path class="cls-1" d="M175.11,104.14h-8.82V112h-4V93.31h4v7.34h8.82V93.31h4V112h-4Z"/><path class="cls-1" d="M184.4,93.31h13.22v3.42h-9.24v4.06h9v3.42h-9v4.34h9.24V112H184.4Z"/><path class="cls-1" d="M202.5,93.31h13.22v3.42h-9.24v4.06h9v3.42h-9V112h-4Z"/><path class="cls-1" d="M224.33,96.81h-5.46v-3.5h14.9v3.5h-5.43V112h-4Z"/></g></g></svg>