<svg xmlns="http://www.w3.org/2000/svg" width="222.95" height="169.35" viewBox="0 0 222.95 169.35"><defs><style>.cls-1{fill:#fff;}</style></defs><title>tag2</title><g id="Layer_2" data-name="Layer 2"><g id="Layer_2-2" data-name="Layer 2"><path class="cls-1" d="M7.2,11.34,0,.31H4.54l4.65,7.5L13.78.31h4.54l-7.14,11V19h-4Z"/><path class="cls-1" d="M28.45,0a9.38,9.38,0,0,1,9.77,9.66,9.38,9.38,0,0,1-9.77,9.66,9.38,9.38,0,0,1-9.74-9.66A9.38,9.38,0,0,1,28.45,0Zm0,3.53C25,3.53,22.8,6.16,22.8,9.66s2.21,6.13,5.66,6.13,5.68-2.66,5.68-6.13S31.9,3.53,28.45,3.53Z"/><path class="cls-1" d="M41.94.31h4V11.4c0,2.6,1.43,4.4,4.34,4.4s4.28-1.79,4.28-4.4V.31h4v11.2c0,4.65-2.66,7.81-8.32,7.81s-8.37-3.19-8.37-7.78Z"/><path class="cls-1" d="M63.19,6.83a4.72,4.72,0,0,0,2.16-2.66,1.25,1.25,0,0,1-.53.11,1.92,1.92,0,0,1-1.9-2A2.24,2.24,0,0,1,65.09,0a2.6,2.6,0,0,1,2.52,2.86,6.53,6.53,0,0,1-2.88,5.21Z"/><path class="cls-1" d="M78.69,12.29H75.78V19h-4V.31h8.74c3.89,0,6.27,2.55,6.27,6a5.36,5.36,0,0,1-4.09,5.54L86.92,19H82.36ZM80,3.72H75.78V8.88H80a2.58,2.58,0,1,0,0-5.15Z"/><path class="cls-1" d="M90.84.31h13.22V3.72H94.81V7.78h9V11.2h-9v4.34h9.24V19H90.84Z"/><path class="cls-1" d="M132.7,5.54,127.43,19H125.7L120.43,5.54V19h-4V.31H122L126.56,12,131.1.31h5.6V19h-4Z"/><path class="cls-1" d="M150.33,0a9.38,9.38,0,0,1,9.77,9.66,9.76,9.76,0,0,1-19.52,0A9.38,9.38,0,0,1,150.33,0Zm0,3.53c-3.44,0-5.66,2.63-5.66,6.13s2.21,6.13,5.66,6.13S156,13.13,156,9.66,153.77,3.53,150.33,3.53Z"/><path class="cls-1" d="M170.82,12.29h-2.91V19h-4V.31h8.74c3.89,0,6.27,2.55,6.27,6a5.36,5.36,0,0,1-4.09,5.54l4.2,7.11h-4.56Zm1.26-8.57h-4.17V8.88h4.17a2.58,2.58,0,1,0,0-5.15Z"/><path class="cls-1" d="M183,.31h13.22V3.72h-9.24V7.78h9V11.2h-9v4.34h9.24V19H183Z"/><path class="cls-1" d="M2,30.31H6V45.48h7.9V49H2Z"/><path class="cls-1" d="M17.1,30.31h4V49h-4Z"/><path class="cls-1" d="M31.29,41.51l-1.46,1.74V49h-4V30.31h4v8.34l6.61-8.34h4.9l-7.42,8.76L41.84,49h-4.9Z"/><path class="cls-1" d="M44.63,30.31H57.85v3.42H48.61v4.06h9V41.2h-9v4.34h9.24V49H44.63Z"/><path class="cls-1" d="M62.26,30.31h4V45.48h7.9V49H62.26Z"/><path class="cls-1" d="M79.9,41.34l-7.2-11h4.54l4.65,7.5,4.59-7.5H91l-7.14,11V49h-4Z"/><path class="cls-1" d="M106.36,33.81H100.9v-3.5h14.9v3.5h-5.43V49h-4Z"/><path class="cls-1" d="M127.45,30a9.38,9.38,0,0,1,9.77,9.66,9.76,9.76,0,0,1-19.52,0A9.38,9.38,0,0,1,127.45,30Zm0,3.53c-3.44,0-5.66,2.63-5.66,6.13s2.21,6.13,5.66,6.13,5.68-2.66,5.68-6.13S130.9,33.53,127.45,33.53Z"/><path class="cls-1" d="M162.12,41.14H153.3V49h-4V30.31h4v7.34h8.82V30.31h4V49h-4Z"/><path class="cls-1" d="M182.74,45.76H174.4L173.22,49h-4.37l7.22-18.68h5L188.26,49h-4.34Zm-7.28-3.44h6.19l-3.08-8.57Z"/><path class="cls-1" d="M187.59,30.31h4.54l5.18,14.36,5.15-14.36H207L199.79,49h-5Z"/><path class="cls-1" d="M209.73,30.31H223v3.42h-9.24v4.06h9V41.2h-9v4.34H223V49H209.73Z"/><path class="cls-1" d="M7.2,71.34,0,60.31H4.54l4.65,7.5,4.59-7.5h4.54l-7.14,11V79h-4Z"/><path class="cls-1" d="M28.45,60a9.66,9.66,0,1,1,0,19.32,9.66,9.66,0,1,1,0-19.32Zm0,3.53c-3.44,0-5.66,2.63-5.66,6.13s2.21,6.13,5.66,6.13,5.68-2.66,5.68-6.13S31.9,63.53,28.45,63.53Z"/><path class="cls-1" d="M41.94,60.31h4V71.4c0,2.6,1.43,4.4,4.34,4.4s4.28-1.79,4.28-4.4V60.31h4v11.2c0,4.65-2.66,7.81-8.32,7.81s-8.37-3.19-8.37-7.78Z"/><path class="cls-1" d="M70.29,72.29H67.38V79h-4V60.31h8.74c3.89,0,6.27,2.55,6.27,6a5.36,5.36,0,0,1-4.09,5.54L78.52,79H74Zm1.26-8.57H67.38v5.15h4.17a2.58,2.58,0,1,0,0-5.15Z"/><path class="cls-1" d="M90.7,60.31h4V79h-4Z"/><path class="cls-1" d="M99.46,60.31h7.36c5.85,0,9.91,3.72,9.91,9.35S112.67,79,106.82,79H99.46Zm7.36,15.18a5.59,5.59,0,0,0,5.85-5.82c0-3.3-2-5.85-5.85-5.85h-3.39V75.48Z"/><path class="cls-1" d="M120.56,60.31h13.22v3.42h-9.24v4.06h9V71.2h-9v4.34h9.24V79H120.56Z"/><path class="cls-1" d="M142.17,66.44V79h-4V60.31h4.09l8.65,12.1V60.31h4V79h-3.84Z"/><path class="cls-1" d="M163.51,63.81H158v-3.5h14.9v3.5h-5.43V79h-4Z"/><path class="cls-1" d="M176.07,60.31h4V79h-4Z"/><path class="cls-1" d="M188.61,63.81h-5.46v-3.5H198v3.5h-5.43V79h-4Z"/><path class="cls-1" d="M207.41,71.34l-7.2-11h4.54l4.65,7.5,4.59-7.5h4.54l-7.14,11V79h-4Z"/><path class="cls-1" d="M2.88,103.33a8.19,8.19,0,0,0,5.94,2.52c2.18,0,3.25-1,3.25-2.1,0-1.4-1.62-1.88-3.78-2.38-3.05-.7-7-1.54-7-5.71C1.32,92.55,4,90,8.4,90a10.39,10.39,0,0,1,7.28,2.6l-2.21,2.91a8,8,0,0,0-5.35-2c-1.79,0-2.74.78-2.74,1.9s1.57,1.65,3.72,2.16c3.08.7,7,1.62,7,5.77,0,3.42-2.44,6-7.48,6a10.65,10.65,0,0,1-7.9-3Z"/><path class="cls-1" d="M24,93.81H18.52v-3.5h14.9v3.5H28V109H24Z"/><path class="cls-1" d="M45.08,90a9.66,9.66,0,1,1,0,19.32,9.66,9.66,0,1,1,0-19.32Zm0,3.53c-3.44,0-5.66,2.63-5.66,6.13s2.21,6.13,5.66,6.13,5.68-2.66,5.68-6.13S48.52,93.53,45.08,93.53Z"/><path class="cls-1" d="M58.68,90.31h4v15.18h7.9V109H58.68Z"/><path class="cls-1" d="M73.79,90.31H87v3.42H77.76v4.06h9v3.42h-9v4.34H87V109H73.79Z"/><path class="cls-1" d="M95.39,96.44V109h-4V90.31H95.5l8.65,12.1V90.31h4V109h-3.84Z"/><path class="cls-1" d="M125.43,93.81H120v-3.5h14.9v3.5h-5.43V109h-4Z"/><path class="cls-1" d="M150.79,101.14H142V109h-4V90.31h4v7.34h8.82V90.31h4V109h-4Z"/><path class="cls-1" d="M171.42,105.76h-8.34L161.9,109h-4.37l7.22-18.68h5l7.2,18.68h-4.34Zm-7.28-3.44h6.19l-3.08-8.57Z"/><path class="cls-1" d="M183.65,96.44V109h-4V90.31h4.09l8.65,12.1V90.31h4V109h-3.84Z"/><path class="cls-1" d="M7.2,131.34l-7.2-11H4.54l4.65,7.5,4.59-7.5h4.54l-7.14,11V139h-4Z"/><path class="cls-1" d="M28.45,120a9.66,9.66,0,1,1,0,19.32,9.66,9.66,0,1,1,0-19.32Zm0,3.53c-3.44,0-5.66,2.63-5.66,6.13s2.21,6.13,5.66,6.13,5.68-2.66,5.68-6.13S31.9,123.53,28.45,123.53Z"/><path class="cls-1" d="M41.94,120.31h4V131.4c0,2.6,1.43,4.4,4.34,4.4s4.28-1.79,4.28-4.4V120.31h4v11.2c0,4.65-2.66,7.81-8.32,7.81s-8.37-3.19-8.37-7.78Z"/><path class="cls-1" d="M70.29,132.29H67.38V139h-4V120.31h8.74c3.89,0,6.27,2.55,6.27,6a5.36,5.36,0,0,1-4.09,5.54l4.2,7.11H74Zm1.26-8.57H67.38v5.15h4.17a2.58,2.58,0,1,0,0-5.15Z"/><path class="cls-1" d="M103.5,131.14H94.68V139h-4V120.31h4v7.34h8.82v-7.34h4V139h-4Z"/><path class="cls-1" d="M121.1,120a9.66,9.66,0,1,1-9.74,9.66A9.38,9.38,0,0,1,121.1,120Zm0,3.53c-3.44,0-5.66,2.63-5.66,6.13s2.21,6.13,5.66,6.13,5.68-2.66,5.68-6.13S124.55,123.53,121.1,123.53Z"/><path class="cls-1" d="M150.94,125.54,145.68,139h-1.74l-5.26-13.44V139h-4V120.31h5.57L144.81,132l4.54-11.65h5.6V139h-4Z"/><path class="cls-1" d="M159.79,120.31H173v3.42h-9.24v4.06h9v3.42h-9v4.34H173V139H159.79Z"/><path class="cls-1" d="M2,150.31h9.83c3.56,0,5.38,2.27,5.38,4.76A4.15,4.15,0,0,1,14,159.35a4.53,4.53,0,0,1,3.58,4.59c0,2.8-1.88,5-5.43,5H2Zm9,7.5a2.06,2.06,0,1,0,0-4.12H6v4.12Zm.14,7.78a2.15,2.15,0,0,0,2.41-2.21,2.18,2.18,0,0,0-2.41-2.18H6v4.4Z"/><path class="cls-1" d="M21.47,150.31h4V161.4c0,2.6,1.43,4.4,4.34,4.4s4.28-1.79,4.28-4.4V150.31h4v11.2c0,4.65-2.66,7.81-8.32,7.81s-8.37-3.19-8.37-7.78Z"/><path class="cls-1" d="M49.82,162.29H46.91V169h-4V150.31h8.74c3.89,0,6.27,2.55,6.27,6a5.36,5.36,0,0,1-4.09,5.54l4.2,7.11H53.49Zm1.26-8.57H46.91v5.15h4.17a2.58,2.58,0,1,0,0-5.15Z"/><path class="cls-1" d="M70.71,150a8.75,8.75,0,0,1,7.73,4.09l-3.3,1.79a5.3,5.3,0,0,0-4.42-2.35,6.14,6.14,0,0,0,0,12.26,6.31,6.31,0,0,0,4-1.43V162.1h-5v-3.42h8.9v7.14a10.37,10.37,0,0,1-8,3.53c-5.46,0-9.94-3.81-9.94-9.69S65.25,150,70.71,150Z"/><path class="cls-1" d="M83,150.31h4v15.18h7.9V169H83Z"/><path class="cls-1" d="M111.06,165.76h-8.34L101.54,169H97.18l7.22-18.68h5l7.2,18.68h-4.34Zm-7.28-3.44H110l-3.08-8.57Z"/><path class="cls-1" d="M126.21,162.29H123.3V169h-4V150.31h8.74c3.89,0,6.27,2.55,6.27,6a5.36,5.36,0,0,1-4.09,5.54l4.2,7.11h-4.56Zm1.26-8.57H123.3v5.15h4.17a2.58,2.58,0,1,0,0-5.15Z"/><path class="cls-1" d="M138.34,150.31h4V169h-4Z"/><path class="cls-1" d="M146.44,165.76l8.82-12h-8.82v-3.5h14v3.19l-8.82,12h9V169H146.44Z"/><path class="cls-1" d="M164.63,150.31h13.22v3.42H168.6v4.06h9v3.42h-9v4.34h9.24V169H164.63Z"/><path class="cls-1" d="M182.25,150.31h7.36c5.85,0,9.91,3.72,9.91,9.35s-4.06,9.32-9.91,9.32h-7.36Zm7.36,15.18a5.59,5.59,0,0,0,5.85-5.82c0-3.3-2-5.85-5.85-5.85h-3.39v11.68Z"/></g></g></svg>