<?xml version="1.0" encoding="UTF-8" standalone="no"?>
<svg width="45px" height="8px" viewBox="0 0 45 8" version="1.1" xmlns="http://www.w3.org/2000/svg" xmlns:xlink="http://www.w3.org/1999/xlink">
    <!-- Generator: Sketch 39 (31667) - http://www.bohemiancoding.com/sketch -->
    <title>Terms apply</title>
    <desc>Created with Sketch.</desc>
    <defs></defs>
    <g id="Page-1" stroke="none" stroke-width="1" fill="none" fill-rule="evenodd">
        <g id="Artboard" transform="translate(-1359.000000, -515.000000)" fill="#FFFFFF">
            <path d="M1360.944,521 L1361.608,521 L1361.608,516.256 L1363.304,516.256 L1363.304,515.664 L1359.256,515.664 L1359.256,516.256 L1360.944,516.256 L1360.944,521 Z M1363.30171,519.064 C1363.30171,520.272 1364.12571,521.096 1365.26971,521.096 C1365.90171,521.096 1366.42171,520.888 1366.80571,520.504 L1366.51771,520.112 C1366.21371,520.424 1365.76571,520.6 1365.32571,520.6 C1364.49371,520.6 1363.98171,519.992 1363.93371,519.264 L1367.06171,519.264 L1367.06171,519.112 C1367.06171,517.952 1366.37371,517.04 1365.20571,517.04 C1364.10171,517.04 1363.30171,517.944 1363.30171,519.064 L1363.30171,519.064 Z M1365.19771,517.536 C1366.07771,517.536 1366.46171,518.248 1366.46971,518.824 L1363.93371,518.824 C1363.96571,518.232 1364.37371,517.536 1365.19771,517.536 L1365.19771,517.536 Z M1368.31543,521 L1368.91543,521 L1368.91543,518.264 C1369.09143,517.952 1369.59543,517.648 1369.96343,517.648 C1370.05943,517.648 1370.13143,517.656 1370.20343,517.672 L1370.20343,517.056 C1369.67543,517.056 1369.22743,517.352 1368.91543,517.76 L1368.91543,517.136 L1368.31543,517.136 L1368.31543,521 Z M1375.90514,521 L1376.50514,521 L1376.50514,518.208 C1376.50514,517.432 1376.12914,517.04 1375.42514,517.04 C1374.86514,517.04 1374.34514,517.408 1374.12914,517.76 C1374.01714,517.36 1373.68114,517.04 1373.08914,517.04 C1372.52114,517.04 1372.00114,517.448 1371.84114,517.696 L1371.84114,517.136 L1371.24114,517.136 L1371.24114,521 L1371.84114,521 L1371.84114,518.176 C1372.04914,517.864 1372.46514,517.576 1372.85714,517.576 C1373.36114,517.576 1373.56914,517.888 1373.56914,518.376 L1373.56914,521 L1374.16914,521 L1374.16914,518.168 C1374.36914,517.864 1374.79314,517.576 1375.19314,517.576 C1375.68914,517.576 1375.90514,517.888 1375.90514,518.376 L1375.90514,521 Z M1377.65486,520.488 C1378.04686,520.904 1378.58286,521.096 1379.21486,521.096 C1380.21486,521.096 1380.73486,520.576 1380.73486,519.928 C1380.73486,519.072 1379.95886,518.88 1379.28686,518.728 C1378.78286,518.608 1378.34286,518.488 1378.34286,518.112 C1378.34286,517.768 1378.67086,517.528 1379.19886,517.528 C1379.69486,517.528 1380.11886,517.736 1380.35086,518.016 L1380.63086,517.6 C1380.31886,517.288 1379.85486,517.04 1379.19886,517.04 C1378.27886,517.04 1377.75886,517.552 1377.75886,518.152 C1377.75886,518.952 1378.50286,519.128 1379.15886,519.28 C1379.67886,519.408 1380.15086,519.544 1380.15086,519.968 C1380.15086,520.344 1379.83086,520.608 1379.23886,520.608 C1378.71086,520.608 1378.22286,520.352 1377.96686,520.056 L1377.65486,520.488 Z M1386.76229,521 L1387.36229,521 L1387.36229,518.344 C1387.36229,517.408 1386.68229,517.04 1385.86629,517.04 C1385.23429,517.04 1384.73829,517.248 1384.32229,517.68 L1384.60229,518.096 C1384.94629,517.728 1385.32229,517.56 1385.78629,517.56 C1386.34629,517.56 1386.76229,517.856 1386.76229,518.376 L1386.76229,519.072 C1386.45029,518.712 1386.01029,518.544 1385.48229,518.544 C1384.82629,518.544 1384.13029,518.952 1384.13029,519.816 C1384.13029,520.656 1384.82629,521.096 1385.48229,521.096 C1386.00229,521.096 1386.44229,520.912 1386.76229,520.56 L1386.76229,521 Z M1386.76229,520.184 C1386.53029,520.504 1386.12229,520.664 1385.69829,520.664 C1385.13829,520.664 1384.74629,520.312 1384.74629,519.824 C1384.74629,519.328 1385.13829,518.976 1385.69829,518.976 C1386.12229,518.976 1386.53029,519.136 1386.76229,519.456 L1386.76229,520.184 Z M1389.448,522.472 L1389.448,520.416 C1389.76,520.848 1390.224,521.096 1390.752,521.096 C1391.768,521.096 1392.472,520.312 1392.472,519.064 C1392.472,517.808 1391.768,517.04 1390.752,517.04 C1390.208,517.04 1389.728,517.32 1389.448,517.712 L1389.448,517.136 L1388.848,517.136 L1388.848,522.472 L1389.448,522.472 Z M1391.84,519.064 C1391.84,519.92 1391.376,520.56 1390.6,520.56 C1390.128,520.56 1389.656,520.272 1389.448,519.936 L1389.448,518.192 C1389.656,517.856 1390.128,517.576 1390.6,517.576 C1391.376,517.576 1391.84,518.208 1391.84,519.064 L1391.84,519.064 Z M1394.32571,522.472 L1394.32571,520.416 C1394.63771,520.848 1395.10171,521.096 1395.62971,521.096 C1396.64571,521.096 1397.34971,520.312 1397.34971,519.064 C1397.34971,517.808 1396.64571,517.04 1395.62971,517.04 C1395.08571,517.04 1394.60571,517.32 1394.32571,517.712 L1394.32571,517.136 L1393.72571,517.136 L1393.72571,522.472 L1394.32571,522.472 Z M1396.71771,519.064 C1396.71771,519.92 1396.25371,520.56 1395.47771,520.56 C1395.00571,520.56 1394.53371,520.272 1394.32571,519.936 L1394.32571,518.192 C1394.53371,517.856 1395.00571,517.576 1395.47771,517.576 C1396.25371,517.576 1396.71771,518.208 1396.71771,519.064 L1396.71771,519.064 Z M1398.60343,521 L1399.20343,521 L1399.20343,515.664 L1398.60343,515.664 L1398.60343,521 Z M1400.56914,521.968 L1400.47314,522.512 C1400.58514,522.544 1400.78514,522.568 1400.91314,522.568 C1401.42514,522.56 1401.81714,522.344 1402.04914,521.784 L1403.98514,517.136 L1403.32914,517.136 L1402.04914,520.304 L1400.76114,517.136 L1400.11314,517.136 L1401.72914,521.04 L1401.47314,521.624 C1401.33714,521.944 1401.16114,522.032 1400.89714,522.032 C1400.80114,522.032 1400.65714,522.008 1400.56914,521.968 L1400.56914,521.968 Z" id="Terms-apply"></path>
        </g>
    </g>
</svg>