<?xml version="1.0" encoding="iso-8859-1"?>
<!-- Generator: Adobe Illustrator 18.1.1, SVG Export Plug-In . SVG Version: 6.00 Build 0)  -->
<svg xmlns="http://www.w3.org/2000/svg" xmlns:xlink="http://www.w3.org/1999/xlink" version="1.1" id="Capa_1" x="0px" y="0px" viewBox="0 0 492.276 492.276" style="enable-background:new 0 0 492.276 492.276;" xml:space="preserve" width="38.125" height="46">
<g>
	<g>
		<path d="M221.887,328.95c-10.483-6.8-23.233-10.2-36.55-10.2c-22.1,0-45.05,9.35-58.083,26.067    c-12.467,16.15-12.467,37.4,0.85,51.567c13.317,14.733,31.167,17.85,48.167,18.417c15.583-0.283,28.9-2.55,41.083-8.783    C249.37,389.867,251.92,348.783,221.887,328.95z M202.054,375.7c-6.8,3.4-14.45,5.1-25.5,5.1c-15.3-0.85-20.117-3.967-23.517-7.65    c-2.55-2.833,0.283-6.8,1.133-7.933c5.95-7.65,18.417-13.033,31.167-13.033c7.083,0,13.317,1.7,17.85,4.533    c3.967,2.55,5.95,5.95,5.667,9.633C208.854,370.6,206.304,373.717,202.054,375.7z" fill="#747474"/>
		<path d="M213.67,178.5c15.3-24.65,9.633-67.15-11.333-87.267c-7.367-7.083-17.85-10.767-28.05-10.767s-20.117,3.683-26.067,11.05    c-8.783,10.483-11.9,22.95-11.9,33.717c0.283,26.067,10.483,48.733,26.067,61.767c7.367,6.233,15.583,9.067,23.233,9.067    C196.387,196.35,206.587,190.117,213.67,178.5z M184.487,161.217c-0.283,0-0.283-0.283-0.567-0.283    c-6.517-5.383-13.317-17.283-13.6-35.417c0-2.55,0.567-6.8,3.117-10.483c0.283,0,0.567,0,1.133,0c2.267,0,4.25,0.85,4.533,1.417    c9.35,9.067,12.75,33.717,5.95,44.767C184.77,160.933,184.77,160.933,184.487,161.217z" fill="#747474"/>
		<path d="M420.22,180.2h-14.167v-11.05c0-28.333-22.95-51.283-51-51.283c-18.133,0-34,9.633-43.067,23.8    c1.417-18.7-0.567-35.7-3.117-50.15c-0.85-4.533-1.7-8.783-3.117-13.033c19.267-8.217,30.6-25.5,29.183-46.75    C333.804,13.883,318.787,0,300.937,0c-6.517,0-13.033,0-19.55,0c-6.517,0-13.033,0-19.55,0c-9.917,0-18.133,0-25.783,0.283    c-4.25,0-8.783,0-13.033,0c-16.15,0-32.867,0-50.15,1.983c-32.3,3.683-60.35,15.583-83.867,35.417    C52.17,69.133,37.72,113.05,45.937,167.733c3.967,26.067,15.583,49.017,33.15,66.017c10.2,9.633,22.1,17.283,35.7,22.667    c-5.667,1.7-10.767,3.4-15.867,5.383c-32.583,11.9-57.233,34.85-69.7,64.033c-12.183,28.9-11.617,61.767,1.7,93.217    c14.733,34.567,43.35,56.667,87.55,68c7.083,1.7,13.883,3.117,20.4,4.25c2.55,0.567,5.383,0.283,7.933,0.85    c2.267,0.283,4.25,0,6.517,0h35.7c2.55,0,5.1,0.283,7.65-0.283c4.25-0.85,8.5-1.417,13.033-2.55    c10.767-2.267,21.817-4.25,33.15-8.217c45.05-14.45,77.35-48.45,88.967-93.217c3.967-15.3,5.1-30.883,3.683-45.9    c5.95,2.55,12.75,3.967,19.833,3.967c28.05,0,51-22.95,51-51.283V282.2h14.167c28.333,0,51.283-22.95,51.283-51    S448.554,180.2,420.22,180.2z M232.087,448.233c-14.167,4.533-28.9,6.8-43.35,9.633c-11.9,0-23.8,0-35.7,0    c-8.783,0-17.85-2.267-26.35-4.533c-28.333-7.083-52.417-19.55-64.6-47.883c-20.4-47.6,0-93.783,49.017-112.483    c11.9-4.533,24.933-7.367,37.4-9.917c12.467-2.267,25.217-2.833,36.55-3.967c-4.533-14.733-9.067-30.033-14.167-46.75    c-5.1-0.567-13.033-1.133-20.683-1.983c-38.25-4.817-64.317-29.75-70.267-68c-5.95-37.967,0.567-72.817,31.45-99.167    c18.7-16.15,41.367-24.65,65.45-27.483c19.833-2.267,39.95-1.7,60.067-1.983c8.5,0,16.717,0,25.217,0c13.033,0,26.067,0,39.383,0    c0.567,9.35-5.383,12.75-12.183,14.167c-10.483,2.55-20.967,3.967-31.45,5.95c-3.4,0.567-6.517,1.133-10.767,1.983    c1.7,1.417,2.55,2.55,3.4,3.117c13.883,8.783,22.383,21.25,25.217,37.4c4.25,25.783,5.1,51.567-5.1,76.783    c-5.95,14.167-15.867,25.217-26.917,35.417c-20.967,19.833-20.967,27.483,0.283,47.317c11.333,10.483,22.95,20.683,33.717,32.017    C320.487,334.05,307.737,423.583,232.087,448.233z M420.22,248.2h-48.167v46.183c0,9.633-7.367,17.283-17,17.283    c-9.633,0-17-7.933-17-17.283V248.2h-43.35c-9.633,0-17.283-7.367-17.283-17c0-9.633,7.933-17,17.283-17h43.35v-45.05    c0-9.633,7.367-17.283,17-17.283c9.633,0,17,7.933,17,17.283v45.05h48.167c9.633,0,17.283,7.367,17.283,17    C437.504,240.833,429.854,248.2,420.22,248.2z" fill="#747474"/>
	</g>
</g>
<g>
</g>
<g>
</g>
<g>
</g>
<g>
</g>
<g>
</g>
<g>
</g>
<g>
</g>
<g>
</g>
<g>
</g>
<g>
</g>
<g>
</g>
<g>
</g>
<g>
</g>
<g>
</g>
<g>
</g>
</svg>
