<svg xmlns="http://www.w3.org/2000/svg" width="44.688" height="46" viewBox="0 0 44.688 46">
  <defs>
    <style>
      .cls-1 {
        fill: #747474;
        fill-rule: evenodd;
      }
    </style>
  </defs>
  <path id="Twitch-icon.svg" class="cls-1" d="M12.85,46.954v-5.5H1.689c-0.011-.23-0.027-0.409-0.027-0.587q0-15.52.005-31.04a2.92,2.92,0,0,1,.147-0.9C2.636,6.434,3.48,3.944,4.3,1.445A0.528,0.528,0,0,1,4.9,1q20.487,0.016,40.973.009h0.458V1.588q0,13.376.008,26.752a1.14,1.14,0,0,1-.372.89Q40.024,35.139,34.1,41.071a1.134,1.134,0,0,1-.892.369c-2.4-.017-4.808,0-7.212-0.018a1.4,1.4,0,0,0-1.117.45c-1.586,1.618-3.195,3.213-4.809,4.8a0.991,0.991,0,0,1-.6.3c-2.148.021-4.3,0.012-6.445,0.01A1.206,1.206,0,0,1,12.85,46.954ZM8.6,5.148V34.514H18.4V40.08c0.152-.144.236-0.221,0.318-0.3,1.654-1.646,3.311-3.289,4.955-4.945a1.024,1.024,0,0,1,.8-0.331q5.14,0.017,10.281-.007a1.175,1.175,0,0,0,.744-0.308c2.136-2.1,4.249-4.23,6.38-6.338a1.02,1.02,0,0,0,.325-0.8Q42.2,16.353,42.2,5.658V5.148H8.6Zm15.381,8.46V26.02H19.835V13.608h4.144ZM35.128,26.036h-4.07V13.607h4.07V26.036Z" transform="translate(-1.656 -1)"/>
</svg>
