<svg xmlns="http://www.w3.org/2000/svg" width="46" height="37.375" viewBox="0 0 46 37.375">
  <defs>
    <style>
      .cls-1 {
        fill: #747474;
        fill-rule: evenodd;
      }
    </style>
  </defs>
  <path id="Twitter-icon.svg" class="cls-1" d="M47,9.749a18.8,18.8,0,0,1-5.429,1.461,9.159,9.159,0,0,0,4.145-5.2,18.5,18.5,0,0,1-5.985,2.278,9.449,9.449,0,0,0-13.56-.219,9.092,9.092,0,0,0-2.759,6.673A10.469,10.469,0,0,0,23.65,16.9,26.266,26.266,0,0,1,12.8,14a26.733,26.733,0,0,1-8.6-6.965,9.243,9.243,0,0,0-1.284,4.76,9.192,9.192,0,0,0,1.139,4.5,9.421,9.421,0,0,0,3.065,3.358,9.35,9.35,0,0,1-4.262-1.2v0.117a9.117,9.117,0,0,0,2.145,6,9.273,9.273,0,0,0,5.415,3.256,9.757,9.757,0,0,1-2.481.321A12.021,12.021,0,0,1,6.164,28a9.45,9.45,0,0,0,8.816,6.541,18.457,18.457,0,0,1-11.706,4.03A20.123,20.123,0,0,1,1,38.456,26.177,26.177,0,0,0,15.476,42.69,27.548,27.548,0,0,0,24.9,41.1a23.966,23.966,0,0,0,7.532-4.264,28.514,28.514,0,0,0,5.386-6.147,27.4,27.4,0,0,0,3.371-7.257A26.806,26.806,0,0,0,42.3,15.852q0-.818-0.029-1.227A19.746,19.746,0,0,0,47,9.749Z" transform="translate(-1 -5.313)"/>
</svg>
