<svg xmlns="http://www.w3.org/2000/svg" width="38.125" height="46" viewBox="0 0 38.125 46">
  <defs>
    <style>
      .cls-1 {
        fill: #747474;
        fill-rule: evenodd;
      }
    </style>
  </defs>
  <path id="You-Tube-icon.svg" class="cls-1" d="M42.894,24.77a4.826,4.826,0,0,0-4.116-3.748q-4.733-.513-14.278-0.513t-14.252.513A4.672,4.672,0,0,0,7.6,22.229,4.875,4.875,0,0,0,6.106,24.77a44.405,44.405,0,0,0-.669,8.986,43.49,43.49,0,0,0,.669,8.986,4.691,4.691,0,0,0,1.48,2.541,4.564,4.564,0,0,0,2.637,1.181A137.819,137.819,0,0,0,24.5,47a137.8,137.8,0,0,0,14.277-.539A4.506,4.506,0,0,0,41.4,45.282a4.869,4.869,0,0,0,1.492-2.541,44.4,44.4,0,0,0,.669-8.986A43.53,43.53,0,0,0,42.894,24.77ZM16.32,27.363H13.567V41.971H10.995V27.363h-2.7V24.95H16.32v2.413Zm6.946,14.607h-2.29V40.584a3.768,3.768,0,0,1-2.624,1.566,1.386,1.386,0,0,1-1.492-.95,6.345,6.345,0,0,1-.206-1.874V29.288h2.29v9.345a7.058,7.058,0,0,0,.026.9,0.525,0.525,0,0,0,.54.539,2.049,2.049,0,0,0,1.466-1.078v-9.7h2.29V41.971Zm8.746-3.8a9.455,9.455,0,0,1-.231,2.568,1.781,1.781,0,0,1-1.827,1.411,3.2,3.2,0,0,1-2.393-1.411v1.232H25.273V24.95h2.289v5.571a3.1,3.1,0,0,1,2.393-1.386,1.786,1.786,0,0,1,1.827,1.438,9.142,9.142,0,0,1,.231,2.542v5.057Zm8.7-2.1H36.1V38.3q0,1.771,1.183,1.771a0.984,0.984,0,0,0,1.029-.925,12.719,12.719,0,0,0,.052-1.566h2.341v0.334a11.339,11.339,0,0,1-.051,1.489,3.1,3.1,0,0,1-.54,1.386,3.138,3.138,0,0,1-2.779,1.361,3.305,3.305,0,0,1-2.778-1.309,4.817,4.817,0,0,1-.746-2.978V33.422a4.947,4.947,0,0,1,.72-2.978,3.522,3.522,0,0,1,5.48,0,5.083,5.083,0,0,1,.695,2.978v2.645h0ZM28.719,31.214a1.654,1.654,0,0,0-1.158.565v7.727a1.653,1.653,0,0,0,1.158.565q1,0,1-1.72V32.934Q29.723,31.214,28.719,31.214Zm8.541,0q-1.158,0-1.157,1.745v1.181h2.315V32.96Q38.418,31.214,37.26,31.214ZM14.828,11.241V18.2H17.4V11.241L20.513,1H17.889L16.14,7.75,14.314,1H11.587q0.72,2.157,1.672,4.8A43.428,43.428,0,0,1,14.828,11.241Zm9.132,7.137a3.167,3.167,0,0,0,2.727-1.309,5.051,5.051,0,0,0,.72-3.029V9.547a5,5,0,0,0-.72-3A3.167,3.167,0,0,0,23.96,5.234a3.183,3.183,0,0,0-2.7,1.309,5,5,0,0,0-.72,3v4.493a5.122,5.122,0,0,0,.72,3.029A3.183,3.183,0,0,0,23.96,18.378ZM22.854,9.084q0-1.771,1.106-1.771t1.106,1.771v5.391q0,1.8-1.106,1.8t-1.106-1.8V9.084Zm8.181,9.294a3.7,3.7,0,0,0,2.65-1.592V18.2h2.341V5.388H33.684v9.781a2.049,2.049,0,0,1-1.467,1.1,0.537,0.537,0,0,1-.54-0.565,6.665,6.665,0,0,1-.026-0.9V5.388H29.311V15.5a6.58,6.58,0,0,0,.206,1.925A1.431,1.431,0,0,0,31.034,18.378Z" transform="translate(-5.438 -1)"/>
</svg>
