<?xml version="1.0" encoding="utf-8"?>
<!-- Generator: Adobe Illustrator 18.0.0, SVG Export Plug-In . SVG Version: 6.00 Build 0)  -->
<!DOCTYPE svg PUBLIC "-//W3C//DTD SVG 1.1//EN" "http://www.w3.org/Graphics/SVG/1.1/DTD/svg11.dtd">
<svg version="1.1" xmlns="http://www.w3.org/2000/svg" xmlns:xlink="http://www.w3.org/1999/xlink" x="0px" y="0px"
	 viewBox="0 0 182 139" enable-background="new 0 0 182 139" xml:space="preserve">
<g id="Layer_1" display="none">
	<g display="inline">
		<path fill="#6D6E70" d="M139.4,90.6c-2.8-1.6-6.4-3.2-6.4-5.6c0-2.5,1.9-4.2,4.8-4.2c2.8,0,5.9,1,7.9,5.4h1.5l-0.7-4.8l-0.4-2.8
			c-5.6-2.2-11.6-1.2-11.6-1.2l0,0c-5.2,0.7-8.5,4.1-8.5,8.9c0,3.9,2.7,7.5,7,9.8c5.6,2.9,8.4,4.8,8.4,7.7c0,3.2-2.4,4.9-6.2,4.9
			c-4.3,0-6.8-2.5-8-7.4h-1.8l1.4,8.8c1.6,0.5,5.1,2.2,9.5,2.2c7.4,0,12.6-5.1,12.6-9.8C148.8,97.1,145.7,94.1,139.4,90.6"/>
		<path fill="#6D6E70" d="M180.1,102.7c-2.1,3.1-2.9,4.2-6.8,4.2c0,0-4.7,0.1-5.1,0c-2.4,0-2.5-0.1-2.5-2.8V96h5.9
			c1,0,1.9,1.4,2.2,2.3h0.6c0.8-1.9,2.1-3.2,4-4v-0.9c-1.9-0.8-3.2-2.1-4-4h-0.6c-0.4,0.9-1.2,2.3-2.2,2.3h-5.9V83l8.7,0
			c3.1,0.1,3.6,0.3,4.4,3.7l1.6,0.1l-1.1-8.6h-26.6v1.2h0l0,0.5c0.3,0,0.4,0,0.8,0.1c3.6,0.4,4.1,1.4,4.1,4.4v21.2
			c0,3-0.4,4-4.1,4.4c-0.4,0.1-0.5,0.1-0.8,0.1l0,0.5h0v1.2h26.5l2.7-9.1L180.1,102.7z"/>
		<path fill="#6D6E70" d="M77,79.9c0.4,0,0.6,0,0.8,0h0.1v-1.8H60v1.8c0.3,0,0.5,0,0.9,0c3.6,0,4.1,1.4,4.1,4.4v18.4
			c-1.4,2.7-4.1,4.8-6.8,4.8c-3.1,0-6-2.1-6-7.7V84.3c0-3,0.4-4.4,4.1-4.4c0.4,0,0.6,0,0.9,0v-1.8h-18v1.8c0.3,0,0.5,0,0.9,0
			c3.6,0,4.1,1.4,4.1,4.4v15.5c0,8.8,4.7,12,10.8,12c3.8,0,7.6-1.9,10-5v3.2v1.3v0.4h13V110v0h-0.2c-0.2,0-0.3,0-0.7-0.1
			c-3.6-0.5-4.1-1.4-4.1-4.4V84.3C72.9,81.3,73.4,79.9,77,79.9"/>
		<path fill="#6D6E70" d="M30.7,101.1c-0.7,5.8-4.3,6.9-9.2,6.9c-7.2,0-12.5-4.9-12.9-12.7C8.3,88,13.2,81.6,20.3,81.6
			c4.7,0,8.8,1.8,9.9,6.1h1.4l-0.3-6.2l-0.1-2.4c-3.2-1.1-7.3-1.5-9.7-1.6c-0.6-0.1-1.3-0.1-2-0.1C8.1,77.4,0,85,0,95.4
			c0,10.9,8.7,17,19.4,17c4.1,0,9.9-1.3,12-2.8l0.9-8.5H30.7z"/>
		<path fill="#F26522" d="M101.9,97.5l16,14.2h3.2l-10.7-16.4c3-1.8,5.2-4.9,5.2-8.6c0-4.7-4.4-8.5-11.9-8.5c-0.1,0-0.3,0-0.4,0v0
			H85.5V79v0.9c0-0.1,1.7,0.1,1.8,0.1c0.7,0.1,1.3,0.3,1.9,0.6c1.3,0.8,1.3,2.4,1.3,3.7v21.2c0,0.5,0,1-0.1,1.5
			c-0.1,0.8-0.4,1.7-1.1,2.1c-0.3,0.2-0.5,0.3-0.8,0.4c-0.5,0.2-1,0.3-1.6,0.3c-0.1,0-1.3,0.1-1.3,0.1c0,0,0,1.7,0,1.7h0h17.8v-1h0
			l0-0.6c-0.3,0-0.4,0-0.8-0.1c-3.6-0.4-4.1-1.4-4.1-4.4v-8.3C99.5,97.3,100.7,97.4,101.9,97.5 M107.7,88c0,4.2-3,6.8-6.5,6.8
			c-1,0-2.7-0.1-2.7-0.1v-1.1V83.6v-1.7c0.5-0.1,1.4-0.1,3.2-0.1C105.8,81.8,107.7,84.7,107.7,88"/>
		<path fill="#F26522" d="M117.4,111.2l1.9,1.7c0,0,0.3,0.3,0.4,0.4c0.8,0.5,2.5,0.2,2.2-0.6c0-0.1-0.4-0.6-1.4-2.1L117.4,111.2z"/>
		<g>
			<path fill="#6D6E70" d="M10.5,119.7h6.1v0.7h-5.3v4.2h4.5v0.7h-4.5v4.9h5.5v0.7h-6.3V119.7z"/>
			<path fill="#6D6E70" d="M22.6,119.7h0.8l4.7,7.9l1.3,2.2h0.1c0-0.5,0-1.1-0.1-1.6c0-0.5,0-1.1,0-1.6v-6.9h0.7v11.2h-0.8l-4.7-7.9
				l-1.3-2.2h-0.1c0,0.5,0,1.1,0.1,1.6s0,1,0,1.6v6.9h-0.7V119.7z"/>
			<path fill="#6D6E70" d="M36.5,129c0.3,0.5,0.6,0.8,0.9,1c0.3,0.2,0.8,0.3,1.2,0.3c0.7,0,1.2-0.2,1.5-0.6c0.3-0.4,0.5-1.1,0.5-2
				v-8.1h0.8v8.2c0,0.5-0.1,0.9-0.2,1.3c-0.1,0.4-0.3,0.7-0.5,1c-0.2,0.3-0.5,0.5-0.9,0.7c-0.4,0.2-0.8,0.3-1.3,0.3
				c-0.6,0-1.2-0.1-1.6-0.4c-0.5-0.3-0.8-0.7-1.1-1.2L36.5,129z"/>
			<path fill="#6D6E70" d="M52,131c-0.7,0-1.3-0.1-1.9-0.4c-0.6-0.3-1.1-0.7-1.5-1.2c-0.4-0.5-0.7-1.1-1-1.8
				c-0.2-0.7-0.3-1.5-0.3-2.4c0-0.9,0.1-1.7,0.3-2.4c0.2-0.7,0.5-1.3,1-1.8c0.4-0.5,0.9-0.9,1.5-1.2c0.6-0.3,1.2-0.4,1.9-0.4
				c0.7,0,1.3,0.1,1.9,0.4c0.6,0.3,1.1,0.7,1.5,1.2c0.4,0.5,0.7,1.1,1,1.8c0.2,0.7,0.3,1.5,0.3,2.4c0,0.9-0.1,1.7-0.3,2.4
				c-0.2,0.7-0.5,1.3-1,1.8c-0.4,0.5-0.9,0.9-1.5,1.2C53.3,130.9,52.6,131,52,131z M52,130.3c0.6,0,1.1-0.1,1.5-0.4
				c0.5-0.2,0.9-0.6,1.2-1c0.3-0.4,0.6-1,0.8-1.6c0.2-0.6,0.3-1.3,0.3-2.1c0-0.8-0.1-1.5-0.3-2.1c-0.2-0.6-0.4-1.2-0.8-1.6
				c-0.3-0.4-0.7-0.8-1.2-1c-0.5-0.2-1-0.4-1.5-0.4s-1.1,0.1-1.6,0.4c-0.5,0.2-0.9,0.6-1.2,1c-0.3,0.4-0.6,1-0.8,1.6
				c-0.2,0.6-0.3,1.3-0.3,2.1c0,0.8,0.1,1.5,0.3,2.1c0.2,0.6,0.4,1.2,0.8,1.6c0.3,0.4,0.7,0.8,1.2,1C50.9,130.2,51.4,130.3,52,130.3
				z"/>
			<path fill="#6D6E70" d="M64,126.3l-3.3-6.7h0.8l1.7,3.5c0.2,0.4,0.4,0.8,0.6,1.2c0.2,0.4,0.4,0.8,0.6,1.2h0.1
				c0.2-0.4,0.4-0.8,0.6-1.2c0.2-0.4,0.4-0.8,0.6-1.2l1.7-3.5h0.8l-3.4,6.7v4.5H64V126.3z"/>
			<path fill="#6D6E70" d="M82.4,120.3h-3.6v-0.7h7.9v0.7h-3.6v10.5h-0.8V120.3z"/>
			<path fill="#6D6E70" d="M92.3,119.7H93v4.9h6v-4.9h0.8v11.2H99v-5.6h-6v5.6h-0.8V119.7z"/>
			<path fill="#6D6E70" d="M106.5,119.7h6.1v0.7h-5.4v4.2h4.5v0.7h-4.5v4.9h5.5v0.7h-6.3V119.7z"/>
			<path fill="#6D6E70" d="M124.7,125.2c0-0.9,0.1-1.7,0.4-2.4c0.2-0.7,0.6-1.3,1-1.8c0.4-0.5,1-0.9,1.6-1.2c0.6-0.3,1.3-0.4,2-0.4
				c0.4,0,0.7,0,1,0.1c0.3,0.1,0.6,0.2,0.8,0.3c0.2,0.1,0.5,0.3,0.7,0.4c0.2,0.2,0.4,0.3,0.5,0.5l-0.5,0.5c-0.3-0.3-0.6-0.6-1.1-0.8
				c-0.4-0.2-0.9-0.3-1.5-0.3c-0.6,0-1.2,0.1-1.7,0.4c-0.5,0.2-0.9,0.6-1.3,1c-0.4,0.4-0.6,1-0.8,1.6c-0.2,0.6-0.3,1.3-0.3,2.1
				c0,0.8,0.1,1.5,0.3,2.1c0.2,0.6,0.4,1.2,0.8,1.6c0.3,0.4,0.8,0.8,1.3,1c0.5,0.2,1.1,0.4,1.7,0.4c0.5,0,1-0.1,1.4-0.2
				c0.4-0.1,0.8-0.4,1.1-0.6V126h-2.7v-0.7h3.4v4.4c-0.4,0.4-0.8,0.7-1.4,0.9c-0.6,0.2-1.2,0.4-2,0.4c-0.7,0-1.4-0.1-2-0.4
				c-0.6-0.3-1.1-0.7-1.5-1.2c-0.4-0.5-0.7-1.1-1-1.8C124.8,126.9,124.7,126.1,124.7,125.2z"/>
			<path fill="#6D6E70" d="M144.1,127h-4.4l-1.3,3.8h-0.8l3.9-11.2h0.8l3.9,11.2h-0.8L144.1,127z M143.9,126.3l-0.7-2.1
				c-0.2-0.7-0.4-1.3-0.6-1.9c-0.2-0.6-0.4-1.3-0.6-2h-0.1c-0.2,0.7-0.4,1.3-0.6,2c-0.2,0.6-0.4,1.3-0.6,1.9l-0.7,2.1H143.9z"/>
			<path fill="#6D6E70" d="M151.4,119.7h1.1l2.3,6.6l0.9,2.5h0.1l0.8-2.5l2.3-6.6h1.1v11.2h-0.8v-7.4c0-0.5,0-1,0-1.5
				c0-0.5,0-1,0.1-1.5h-0.1l-0.9,2.5l-2.4,6.7h-0.7l-2.4-6.7l-0.9-2.5h-0.1c0,0.5,0,1,0.1,1.5c0,0.5,0,1,0,1.5v7.4h-0.7V119.7z"/>
			<path fill="#6D6E70" d="M166.8,119.7h6.1v0.7h-5.4v4.2h4.5v0.7h-4.5v4.9h5.5v0.7h-6.3V119.7z"/>
		</g>
		<g>
			<g>
				<defs>
					<path id="SVGID_1_" d="M99.5,11.1c-8.6,5.8-2.9,14.2-2.1,15.5c0.7,1.2,0.2,3.7-2.2,3.9c-3.6,0.2-4.4-5.5-4.4-5.5
						c-2.7,2.8-2,7.9,2.1,11.3c2.5,2.1,2.6,5.4,1.7,8.4c-0.5,1.6-1.3,3.1-2.7,4.1c-2.8,2.1-6.5,0.7-8.3-2.1
						c-2.8-4.5,0.1-8.9,0.1-8.9c-4.4,1.7-6.7,4.3-7.6,7.1c0,0,0,0,0,0c0,0,0,0.1,0,0.2c-0.1,0.3-0.2,0.8-0.3,1.1
						c-0.1,0.3,0,0.4,0,0.7c0,0.2,0,0.3,0,0.5c-0.3,2.9,0.3,7.5,4.6,11.6c6.4,6,11.2,4.8,13.8,5.5c2.6,0.7,4.9,1.6,6.6,5.5
						c0,0,0.5-1.3,2.1-2.4c2.6-1.7,6.7-1.8,10.3-4.2c3.6-2.4,6.3-7.1,4.4-12.6c-2.1-6-3.9-7.1-3.9-7.1c1.6,2.3,1.5,4.6,0.3,7.2
						c-0.9,2-5.2,5.1-6.9,2.5c-0.6-0.9-0.9-2.4-0.7-3.4c0.2-1,0.6-2.2,1-3.1c0.4-0.9,1-2.1,1.6-2.9c0.8-1.1,1.5-1.9,1.7-3.2
						c0.2-1.1,0.7-2-0.4-2.7c0.4,1.3-0.7,2.2-1.9,2.7c-0.1,0-0.3,0-0.4-0.1c-0.1,0-0.3-0.1-0.4-0.1c-0.4,0.1-0.4-0.3-0.7-0.4
						c-0.9-0.2-1.8-0.8-2.2-1.7c-0.6-1.4-0.2-3,0.8-4.1c0.9-0.9,2.1-1.1,3.3-0.7c-0.6-3.5-2.9-5.7-4.7-8.3c-2.3-3.4-3.5-7.3-2-11
						c0-0.1,0.1-0.2,0.1-0.2c1.4-3.3,5.4-5.5,8.8-6c-0.2,0-0.4,0-0.6,0C104.4,8,99.5,11.1,99.5,11.1"/>
				</defs>
				<linearGradient id="SVGID_2_" gradientUnits="userSpaceOnUse" x1="112.7354" y1="63.7049" x2="86.6608" y2="18.5425">
					<stop  offset="0" style="stop-color:#FFF200"/>
					<stop  offset="0.1889" style="stop-color:#FFD400"/>
					<stop  offset="0.7503" style="stop-color:#F6861F"/>
					<stop  offset="1" style="stop-color:#F26522"/>
				</linearGradient>
				<use xlink:href="#SVGID_1_"  overflow="visible" fill="url(#SVGID_2_)"/>
				<clipPath id="SVGID_3_">
					<use xlink:href="#SVGID_1_"  overflow="visible"/>
				</clipPath>
			</g>
			<path fill="#F26522" d="M118.1,50.3c-2.1-6-5.2-7.7-5.3-7.7c1.6,2.3,1.9,5.6,0.8,8.2c-0.9,2-4.3,4.8-6.1,2.1
				c-0.6-0.9-0.7-2-0.5-3c0.2-1,0.4-1.9,0.8-2.8c0.4-0.9,1.1-1.9,1.7-2.7c0.8-1.1,1.3-2.4,1.5-3.7c0.2-1.1,0.1-3.5-1-4.2
				c0.4,1.3-0.5,2.8-1.8,3.4c-0.2,0.1-0.4,0.1-0.5,0.2c-0.3,0.1-0.6,0.1-0.9,0c-1.8,0.8-3.3,1.8-4.5,2.7c-0.8,0.6-1.6,1.3-2.4,2.1
				c-0.5,0.5-0.8,0.9-0.8,0.9v0c-0.7,0.8-1.4,1.8-2,2.9c-1.9,3.2-1.9,8.9-0.4,13.1l-1.7-1.3c0,0-0.1-0.1-0.1-0.1
				c-6.7-4.3-17.4-5.2-18.9-12.9c0-0.2-0.1-0.4-0.1-0.6c0,0,0,0,0,0c0-0.2,0-0.4-0.1-0.6c0,0.2-0.1,0.5-0.1,0.7c0,0.2,0,0.3-0.1,0.5
				c-0.3,2.9,0,7.8,4.3,11.9c6.4,6,11.2,5.6,13.8,6.3c2.6,0.7,5.1,2.2,6.8,6.1c0,0,1.1-2.2,2.7-3.3c2.6-1.7,6.5-1.7,10.1-4.1
				C117.1,61.9,120,55.9,118.1,50.3"/>
		</g>
	</g>
</g>
<g id="Layer_2">
	<g>
		<g>
			<g>
				<linearGradient id="SVGID_4_" gradientUnits="userSpaceOnUse" x1="112.9389" y1="63.3199" x2="86.864" y2="18.1569">
					<stop  offset="0" style="stop-color:#FFF200"/>
					<stop  offset="0.1889" style="stop-color:#FFD400"/>
					<stop  offset="0.7503" style="stop-color:#F6861F"/>
					<stop  offset="1" style="stop-color:#F26522"/>
				</linearGradient>
				<path fill="url(#SVGID_4_)" d="M99.7,10.8c3.3-2.1,7.5-3.3,11.5-3.2c-5.3,0.9-10.1,4.9-9.5,10.7c0.3,3,1.8,5.6,3.6,8
					c1.6,2.1,3.3,4.3,3.7,7c-3.1-1.1-5.8,3.1-3.7,5.5c0.5,0.5,1.1,0.9,1.8,1c0.3,0,0.3,0.3,0.6,0.4c0.2,0.1,0.6,0.1,0.8,0.2
					c0.5,0.1,1.4-0.7,1.7-1c0.4-0.5,0.6-1.1,0.4-1.7c1.1,0.7,0.6,2.3,0.2,3.3c-0.5,1.5-1.8,2.7-2.5,4.2c-1.2,2.3-2.8,5.9-0.6,8.2
					c1.7,1.8,4.5-0.2,5.8-1.5c2.1-2.3,2.3-6,0.6-8.5c0.2,0.1,0.6,0.5,0.7,0.7c0.8,0.9,1.4,2,1.9,3.1c1.7,3.6,2.8,7.5,1,11.3
					c-1.6,3.5-4.9,5.5-8.5,6.6c-2.8,0.9-6.7,1.5-8,4.6c-1.5-3.5-4.5-5.4-8.2-5.7c-3.9-0.3-7.2-1.2-10.4-3.6c-3.8-2.9-6.6-7.1-6.6-12
					c0-4,1.6-7.2,5-9.3c1-0.6,2-1.1,3-1.5c-1.8,2.8-1.8,6.7,0.2,9.4c1.1,1.5,2.9,2.6,4.8,2.6c2.2,0.1,4-1.3,5.1-3.2
					c1-1.8,1.4-4,1.2-6c-0.1-1-0.4-1.9-0.9-2.8c-0.6-1-1.6-1.7-2.4-2.6c-2.5-2.7-3.8-7.3-1-10.3c0.3,1.8,1,4.1,2.6,5.1
					c2.6,1.5,5.2-1.3,3.8-3.8c-1.1-1.9-2.1-4-2.3-6.2C94.7,16,96.6,12.8,99.7,10.8"/>
				<linearGradient id="SVGID_5_" gradientUnits="userSpaceOnUse" x1="111.3301" y1="59.6678" x2="87.1307" y2="17.7531">
					<stop  offset="0" style="stop-color:#FFF200"/>
					<stop  offset="0.1889" style="stop-color:#FFD400"/>
					<stop  offset="0.7503" style="stop-color:#F6861F"/>
					<stop  offset="1" style="stop-color:#F26522"/>
				</linearGradient>
				<path display="none" fill="url(#SVGID_5_)" d="M75.7,49.2c0,0-0.2-8.3,7.7-11.5c0,0-5.4,11.8,5.6,11.8c9.2,0,5.3-11.6,3-14.7
					s-3.2-6.8-1-9.6c0,0-1,4.8,3.8,4.8c4.2,0,1.7-5.5,1-6.7S90.5,9.7,110.6,7c0,0-10.9,4-9,11.5s7.7,14.4,7.7,14.4s-4.8-0.7-4.8,3.8
					s5.7,2.9,5.7,2.9l-4.5,5.7L103,57.8v6.7l-8.9-1.9l-10.7-4.8l-6.8-6.7L75.7,49.2z"/>
				<path fill="#F26522" d="M118.3,50c-2.1-6-5.2-7.7-5.3-7.7c1.6,2.3,1.9,5.6,0.8,8.2c-0.9,2-4.3,4.8-6.1,2.1c-0.6-0.9-0.7-2-0.5-3
					c0.2-1,0.4-1.9,0.8-2.8c0.4-0.9,1.1-1.9,1.7-2.7c0.8-1.1,1.3-2.4,1.5-3.7c0.2-1.1,0.1-3.5-1-4.2c0.4,1.3-0.5,2.8-1.8,3.4
					c-0.2,0.1-0.4,0.1-0.5,0.2c-0.3,0.1-0.6,0.1-0.9,0c-1.8,0.8-3.3,1.8-4.5,2.7c-0.8,0.6-1.6,1.3-2.4,2.1c-0.5,0.5-0.8,0.9-0.8,0.9
					v0c-0.7,0.8-1.4,1.8-2,2.9c-1.9,3.2-1.9,8.9-0.4,13.1l-1.7-1.3c0,0-0.1-0.1-0.1-0.1c-6.7-4.3-17.4-5.2-18.9-12.9
					c0-0.2-0.1-0.4-0.1-0.6c0,0,0,0,0,0c0-0.2,0-0.4-0.1-0.6c0,0.2-0.1,0.5-0.1,0.7c0,0.2,0,0.3-0.1,0.5c-0.3,2.9,0,7.8,4.3,11.9
					c6.4,6,11.2,5.6,13.9,6.3c2.6,0.7,5.1,2.2,6.8,6.1c0,0,1.1-2.2,2.7-3.3c2.6-1.7,6.5-1.7,10.1-4.1
					C117.3,61.5,120.3,55.5,118.3,50"/>
			</g>
			<path fill="#FFFFFF" d="M139.2,90.8c-2.8-1.6-6.4-3.2-6.4-5.6c0-2.4,1.9-4.2,4.8-4.2c2.8,0,5.9,1,7.8,5.4h1.5l-0.7-4.8l-0.4-2.8
				c-5.6-2.2-11.6-1.2-11.6-1.2l0,0c-5.2,0.7-8.5,4.1-8.5,8.9c0,3.9,2.7,7.5,7,9.8c5.6,2.9,8.4,4.8,8.4,7.7c0,3.2-2.4,4.9-6.2,4.9
				c-4.3,0-6.8-2.4-8-7.4h-1.8l1.4,8.8c1.6,0.5,5.1,2.1,9.5,2.1c7.4,0,12.6-5.1,12.6-9.8C148.6,97.3,145.5,94.3,139.2,90.8"/>
			<path fill="#FFFFFF" d="M179.8,102.9c-2.1,3.1-2.9,4.2-6.8,4.2c0,0-4.7,0.1-5.1,0c-2.4,0-2.5-0.1-2.5-2.8v-8.1h5.9
				c1,0,1.8,1.4,2.2,2.3h0.6c0.8-1.9,2.1-3.2,4-4v-0.9c-1.9-0.8-3.2-2.1-4-4h-0.6c-0.4,0.9-1.2,2.3-2.2,2.3h-5.9v-8.7l8.7,0
				c3.1,0.1,3.6,0.3,4.4,3.7l1.6,0.1l-1.1-8.6h-26.6v1.2h0l0,0.5c0.3,0,0.4,0,0.8,0.1c3.6,0.4,4.1,1.4,4.1,4.4v21.2
				c0,3-0.4,4-4.1,4.4c-0.4,0.1-0.5,0.1-0.8,0.1l0,0.5h0v1.2H179l2.7-9.1L179.8,102.9z"/>
			<path fill="#FFFFFF" d="M76.9,80.2c0.4,0,0.5,0,0.8,0h0.1v-1.8H59.9v1.8c0.3,0,0.5,0,0.9,0c3.6,0,4.1,1.4,4.1,4.4v18.3
				c-1.4,2.7-4.1,4.7-6.8,4.7c-3.1,0-6-2.1-6-7.7V84.5c0-3,0.4-4.4,4.1-4.4c0.4,0,0.6,0,0.9,0v-1.8H39.1v1.8c0.3,0,0.5,0,0.9,0
				c3.6,0,4.1,1.4,4.1,4.4V100c0,8.8,4.7,12,10.8,12c3.8,0,7.6-1.9,10-5v3.2v1.3v0.4h13v-1.7v0h-0.2c-0.2,0-0.3,0-0.7-0.1
				c-3.6-0.5-4.1-1.4-4.1-4.4V84.5C72.9,81.6,73.3,80.2,76.9,80.2"/>
			<path fill="#FFFFFF" d="M30.7,101.3c-0.7,5.8-4.3,6.9-9.2,6.9c-7.2,0-12.5-4.9-12.9-12.7c-0.3-7.3,4.6-13.7,11.7-13.7
				c4.7,0,8.8,1.8,9.8,6.1h1.4l-0.3-6.2l-0.1-2.4c-3.2-1.1-7.3-1.5-9.7-1.6c-0.6-0.1-1.3-0.1-2-0.1C8.2,77.6,0,85.3,0,95.7
				c0,10.9,8.7,17,19.4,17c4.1,0,9.8-1.3,12-2.8l0.9-8.5H30.7z"/>
			<path fill="#F26522" d="M101.8,97.7l16,14.2h3.2l-10.7-16.4c3-1.8,5.2-4.9,5.2-8.6c0-4.7-4.4-8.5-11.9-8.5c-0.1,0-0.3,0-0.4,0v0
				H85.5v0.8v0.9c0-0.1,1.7,0.1,1.8,0.1c0.7,0.1,1.3,0.3,1.9,0.6c1.3,0.8,1.3,2.4,1.3,3.7v21.2c0,0.5,0,1-0.1,1.5
				c-0.1,0.8-0.4,1.7-1.1,2.1c-0.3,0.2-0.5,0.3-0.8,0.4c-0.5,0.2-1,0.3-1.6,0.3c-0.1,0-1.3,0.1-1.3,0.1c0,0,0,1.7,0,1.7h0h17.8v-1h0
				l0-0.6c-0.3,0-0.4,0-0.8-0.1c-3.6-0.4-4.1-1.4-4.1-4.4v-8.3C99.4,97.5,100.6,97.6,101.8,97.7 M107.6,88.2c0,4.2-3,6.8-6.5,6.8
				c-1,0-2.7-0.1-2.7-0.1v-1.1V83.8v-1.7c0.5-0.1,1.4-0.1,3.2-0.1C105.7,82,107.6,85,107.6,88.2"/>
			<path fill="#F26522" d="M117.3,111.4l1.9,1.7c0,0,0.3,0.3,0.4,0.4c0.8,0.5,2.5,0.2,2.1-0.6c0-0.1-0.4-0.5-1.4-2.1L117.3,111.4z"
				/>
		</g>
		<g>
			<path fill="#FFFFFF" d="M6.9,120.1h6.4v0.7H7.8v4.4h4.7v0.7H7.8v5.1h5.8v0.7H6.9V120.1z"/>
			<path fill="#FFFFFF" d="M19.6,120.1h0.8l4.9,8.2l1.3,2.3h0.1c0-0.6,0-1.1-0.1-1.7c0-0.6,0-1.1,0-1.7v-7.2h0.8v11.7h-0.8l-4.9-8.2
				l-1.3-2.3h-0.1c0,0.6,0,1.1,0.1,1.7c0,0.5,0,1.1,0,1.7v7.2h-0.8V120.1z"/>
			<path fill="#FFFFFF" d="M34,129.9c0.3,0.5,0.6,0.8,1,1.1c0.4,0.2,0.8,0.3,1.3,0.3c0.7,0,1.2-0.2,1.6-0.6c0.3-0.4,0.5-1.1,0.5-2.1
				v-8.4h0.8v8.5c0,0.5-0.1,0.9-0.2,1.3c-0.1,0.4-0.3,0.8-0.5,1.1c-0.2,0.3-0.5,0.5-0.9,0.7c-0.4,0.2-0.8,0.3-1.3,0.3
				c-0.6,0-1.2-0.1-1.7-0.4c-0.5-0.3-0.9-0.7-1.2-1.3L34,129.9z"/>
			<path fill="#FFFFFF" d="M50.2,132c-0.7,0-1.3-0.1-1.9-0.4c-0.6-0.3-1.1-0.7-1.5-1.2c-0.4-0.5-0.8-1.2-1-1.9
				c-0.2-0.7-0.4-1.6-0.4-2.5s0.1-1.8,0.4-2.5c0.2-0.7,0.6-1.4,1-1.9c0.4-0.5,0.9-0.9,1.5-1.2c0.6-0.3,1.2-0.4,1.9-0.4
				c0.7,0,1.4,0.1,1.9,0.4c0.6,0.3,1.1,0.7,1.5,1.2c0.4,0.5,0.8,1.2,1,1.9c0.2,0.7,0.4,1.6,0.4,2.5s-0.1,1.8-0.4,2.5
				c-0.2,0.7-0.6,1.4-1,1.9c-0.4,0.5-0.9,0.9-1.5,1.2C51.5,131.8,50.9,132,50.2,132z M50.2,131.2c0.6,0,1.1-0.1,1.6-0.4
				c0.5-0.3,0.9-0.6,1.2-1.1c0.3-0.5,0.6-1,0.8-1.7c0.2-0.7,0.3-1.4,0.3-2.2c0-0.8-0.1-1.5-0.3-2.2c-0.2-0.6-0.5-1.2-0.8-1.7
				c-0.3-0.5-0.8-0.8-1.2-1.1c-0.5-0.2-1-0.4-1.6-0.4s-1.1,0.1-1.6,0.4c-0.5,0.2-0.9,0.6-1.2,1.1s-0.6,1-0.8,1.7
				c-0.2,0.6-0.3,1.4-0.3,2.2c0,0.8,0.1,1.5,0.3,2.2c0.2,0.7,0.5,1.2,0.8,1.7c0.3,0.5,0.8,0.8,1.2,1.1
				C49.1,131.1,49.6,131.2,50.2,131.2z"/>
			<path fill="#FFFFFF" d="M62.7,127l-3.5-6.9h0.9l1.8,3.6c0.2,0.4,0.4,0.8,0.6,1.3c0.2,0.4,0.4,0.8,0.6,1.3h0.1
				c0.2-0.4,0.4-0.8,0.7-1.3c0.2-0.4,0.4-0.8,0.6-1.3l1.8-3.6H67l-3.5,6.9v4.7h-0.8V127z"/>
			<path fill="#FFFFFF" d="M81.9,120.8h-3.7v-0.7h8.3v0.7h-3.7v11h-0.8V120.8z"/>
			<path fill="#FFFFFF" d="M92.2,120.1H93v5.1h6.3v-5.1h0.8v11.7h-0.8v-5.8H93v5.8h-0.8V120.1z"/>
			<path fill="#FFFFFF" d="M107.1,120.1h6.4v0.7h-5.6v4.4h4.7v0.7h-4.7v5.1h5.8v0.7h-6.6V120.1z"/>
			<path fill="#FFFFFF" d="M126,125.9c0-0.9,0.1-1.8,0.4-2.5c0.2-0.7,0.6-1.4,1.1-1.9c0.5-0.5,1-0.9,1.6-1.2
				c0.6-0.3,1.3-0.4,2.1-0.4c0.4,0,0.7,0,1.1,0.1c0.3,0.1,0.6,0.2,0.9,0.3c0.3,0.1,0.5,0.3,0.7,0.5c0.2,0.2,0.4,0.3,0.5,0.5
				l-0.5,0.5c-0.3-0.3-0.7-0.6-1.1-0.8c-0.4-0.2-1-0.3-1.6-0.3c-0.7,0-1.3,0.1-1.8,0.4c-0.5,0.2-1,0.6-1.4,1.1
				c-0.4,0.5-0.7,1-0.9,1.7s-0.3,1.4-0.3,2.2s0.1,1.5,0.3,2.2c0.2,0.7,0.5,1.2,0.8,1.7c0.4,0.5,0.8,0.8,1.3,1.1
				c0.5,0.3,1.1,0.4,1.8,0.4c0.5,0,1-0.1,1.5-0.2c0.5-0.2,0.8-0.4,1.1-0.7v-3.6h-2.8V126h3.6v4.6c-0.4,0.4-0.8,0.7-1.4,1
				c-0.6,0.2-1.3,0.4-2,0.4c-0.7,0-1.4-0.1-2-0.4s-1.1-0.7-1.6-1.2c-0.4-0.5-0.8-1.2-1-1.9C126.2,127.7,126,126.8,126,125.9z"/>
			<path fill="#FFFFFF" d="M146.3,127.8h-4.6l-1.4,4h-0.8l4.1-11.7h0.8l4.1,11.7h-0.8L146.3,127.8z M146.1,127.1l-0.7-2.2
				c-0.2-0.7-0.5-1.4-0.7-2c-0.2-0.6-0.4-1.3-0.6-2H144c-0.2,0.7-0.4,1.4-0.6,2s-0.4,1.3-0.7,2l-0.7,2.2H146.1z"/>
			<path fill="#FFFFFF" d="M153.9,120.1h1.2l2.4,6.9l0.9,2.6h0.1l0.9-2.6l2.4-6.9h1.2v11.7h-0.8v-7.7c0-0.5,0-1,0-1.6
				c0-0.6,0-1.1,0.1-1.6h-0.1l-0.9,2.6l-2.5,7h-0.7l-2.5-7l-0.9-2.6h-0.1c0,0.5,0,1,0.1,1.6c0,0.6,0,1.1,0,1.6v7.7h-0.8V120.1z"/>
			<path fill="#FFFFFF" d="M169.9,120.1h6.4v0.7h-5.6v4.4h4.7v0.7h-4.7v5.1h5.8v0.7h-6.6V120.1z"/>
		</g>
	</g>
</g>
</svg>
