<?xml version="1.0" encoding="utf-8"?>
<!-- Generator: Adobe Illustrator 16.0.0, SVG Export Plug-In . SVG Version: 6.00 Build 0)  -->
<!DOCTYPE svg PUBLIC "-//W3C//DTD SVG 1.1//EN" "http://www.w3.org/Graphics/SVG/1.1/DTD/svg11.dtd">
<svg version="1.1" id="Layer_1" xmlns="http://www.w3.org/2000/svg" xmlns:xlink="http://www.w3.org/1999/xlink" x="0px" y="0px"
	 width="60px" height="60px" viewBox="0 0 60 60" enable-background="new 0 0 60 60" xml:space="preserve">
<g>
	<path d="M42.217,16.458h-0.285c-0.188,0-0.283-0.095-0.283-0.283c0-0.189,0.098-0.285,0.283-0.285h0.285
		c0.188,0,0.283,0.095,0.283,0.285C42.404,16.363,42.312,16.458,42.217,16.458L42.217,16.458z"/>
	<path d="M40.607,16.458h-0.285c-0.188,0-0.283-0.095-0.283-0.283c0-0.189,0.096-0.285,0.283-0.285h0.285
		c0.188,0,0.283,0.095,0.283,0.285C40.891,16.363,40.701,16.458,40.607,16.458L40.607,16.458z"/>
	<path d="M38.998,16.458h-0.285c-0.189,0-0.283-0.095-0.283-0.283c0-0.189,0.094-0.285,0.283-0.285h0.285
		c0.188,0,0.281,0.095,0.281,0.285C39.279,16.363,39.092,16.458,38.998,16.458L38.998,16.458z"/>
	<path d="M37.387,16.458h-0.283c-0.188,0-0.285-0.095-0.285-0.283c0-0.189,0.1-0.285,0.285-0.285h0.283
		c0.189,0,0.285,0.095,0.285,0.285C37.672,16.363,37.482,16.458,37.387,16.458L37.387,16.458z"/>
	<path d="M35.775,16.458h-0.281c-0.191,0-0.285-0.095-0.285-0.283c0-0.189,0.094-0.285,0.285-0.285h0.281
		c0.189,0,0.285,0.095,0.285,0.285C36.062,16.363,35.967,16.458,35.775,16.458L35.775,16.458z"/>
	<path d="M34.168,16.458h-0.285c-0.189,0-0.283-0.095-0.283-0.283c0-0.189,0.094-0.285,0.283-0.285h0.285
		c0.188,0,0.283,0.095,0.283,0.285C34.451,16.363,34.355,16.458,34.168,16.458L34.168,16.458z"/>
	<path d="M32.559,16.458h-0.283c-0.188,0-0.287-0.095-0.287-0.283c0-0.189,0.1-0.285,0.287-0.285h0.283
		c0.189,0,0.283,0.095,0.283,0.285C32.842,16.363,32.748,16.458,32.559,16.458L32.559,16.458z"/>
	<path d="M30.947,16.458h-0.283c-0.189,0-0.285-0.095-0.285-0.283c0-0.189,0.096-0.285,0.285-0.285h0.283
		c0.189,0,0.283,0.095,0.283,0.285C31.23,16.363,31.137,16.458,30.947,16.458L30.947,16.458z"/>
	<path d="M29.337,16.458h-0.282c-0.191,0-0.285-0.095-0.285-0.283c0-0.189,0.094-0.285,0.285-0.285h0.282
		c0.19,0,0.284,0.095,0.284,0.285C29.622,16.363,29.528,16.458,29.337,16.458L29.337,16.458z"/>
	<path d="M27.823,16.458h-0.284c-0.188,0-0.284-0.095-0.284-0.283c0-0.189,0.096-0.285,0.284-0.285h0.284
		c0.189,0,0.283,0.095,0.283,0.285C28.012,16.363,27.917,16.458,27.823,16.458L27.823,16.458z"/>
	<path d="M26.213,16.458H25.93c-0.189,0-0.285-0.095-0.285-0.283c0-0.189,0.096-0.285,0.285-0.285h0.283
		c0.189,0,0.283,0.095,0.283,0.285C26.403,16.363,26.307,16.458,26.213,16.458L26.213,16.458z"/>
	<path d="M24.604,16.458h-0.285c-0.188,0-0.283-0.095-0.283-0.283c0-0.189,0.095-0.285,0.283-0.285h0.285
		c0.188,0,0.283,0.095,0.283,0.285C24.887,16.363,24.698,16.458,24.604,16.458L24.604,16.458z"/>
	<path d="M22.993,16.458h-0.284c-0.188,0-0.283-0.095-0.283-0.283c0-0.189,0.095-0.285,0.283-0.285h0.284
		c0.189,0,0.283,0.095,0.283,0.285C23.276,16.363,23.088,16.458,22.993,16.458L22.993,16.458z"/>
	<path d="M21.383,16.458H21.1c-0.189,0-0.285-0.095-0.285-0.283c0-0.189,0.096-0.285,0.285-0.285h0.283
		c0.189,0,0.284,0.095,0.284,0.285C21.667,16.363,21.573,16.458,21.383,16.458L21.383,16.458z"/>
	<path d="M19.774,16.458h-0.285c-0.188,0-0.283-0.095-0.283-0.283c0-0.189,0.095-0.285,0.283-0.285h0.285
		c0.188,0,0.283,0.095,0.283,0.285C20.057,16.363,19.962,16.458,19.774,16.458L19.774,16.458z"/>
	<path d="M18.164,16.458H17.88c-0.189,0-0.283-0.095-0.283-0.283c0-0.189,0.094-0.285,0.283-0.285h0.284
		c0.188,0,0.284,0.095,0.284,0.285C18.448,16.363,18.354,16.458,18.164,16.458L18.164,16.458z"/>
	<path d="M15.512,16.458h-0.283c-0.189,0-0.285-0.095-0.285-0.283c0-0.189,0.096-0.285,0.285-0.285h0.283
		c0.189,0,0.284,0.095,0.284,0.285C15.796,16.363,15.606,16.458,15.512,16.458L15.512,16.458z"/>
	<path d="M13.712,16.458H13.43c-0.191,0-0.285-0.095-0.285-0.283c0-0.189,0.094-0.285,0.285-0.285h0.282
		c0.188,0,0.285,0.095,0.285,0.285C13.998,16.363,13.901,16.458,13.712,16.458L13.712,16.458z"/>
	<path d="M11.914,16.458H11.63c-0.189,0-0.283-0.095-0.283-0.283c0-0.189,0.094-0.285,0.283-0.285h0.284
		c0.188,0,0.284,0.095,0.284,0.285C12.198,16.363,12.104,16.458,11.914,16.458L11.914,16.458z"/>
	<path d="M10.209,16.458H9.924c-0.188,0-0.283-0.095-0.283-0.283c0-0.189,0.095-0.285,0.283-0.285h0.285
		c0.188,0,0.283,0.095,0.283,0.285C10.493,16.363,10.304,16.458,10.209,16.458L10.209,16.458z"/>
	<g>
		<path d="M26.875,27.538h-0.284c-0.188,0-0.284-0.095-0.284-0.285c0-0.188,0.096-0.283,0.284-0.283h0.284
			c0.189,0,0.284,0.095,0.284,0.283C27.16,27.443,26.971,27.538,26.875,27.538L26.875,27.538z M25.266,27.538h-0.283
			c-0.189,0-0.284-0.095-0.284-0.285c0-0.188,0.095-0.283,0.284-0.283h0.283c0.189,0,0.283,0.095,0.283,0.283
			C25.549,27.443,25.36,27.538,25.266,27.538L25.266,27.538z M23.655,27.538h-0.283c-0.189,0-0.283-0.095-0.283-0.285
			c0-0.188,0.094-0.283,0.283-0.283h0.283c0.189,0,0.285,0.095,0.285,0.283C23.94,27.443,23.75,27.538,23.655,27.538L23.655,27.538z
			 M22.046,27.538h-0.284c-0.188,0-0.283-0.095-0.283-0.285c0-0.188,0.095-0.283,0.283-0.283h0.284c0.188,0,0.284,0.095,0.284,0.283
			C22.331,27.443,22.235,27.538,22.046,27.538L22.046,27.538z M12.481,27.538h-0.283c-0.189,0-0.284-0.095-0.284-0.285
			c0-0.188,0.095-0.283,0.284-0.283h0.283c0.189,0,0.285,0.095,0.285,0.283C12.766,27.443,12.577,27.538,12.481,27.538
			L12.481,27.538z M10.872,27.538h-0.283c-0.19,0-0.285-0.095-0.285-0.285c0-0.188,0.095-0.283,0.285-0.283h0.283
			c0.189,0,0.283,0.095,0.283,0.283C11.155,27.443,10.966,27.538,10.872,27.538L10.872,27.538z"/>
	</g>
	<path d="M51.307,38.714c-0.188,0-0.283-0.097-0.283-0.284s0.098-0.283,0.283-0.283l0,0c0.191,0,0.285,0.096,0.285,0.283
		S51.402,38.714,51.307,38.714L51.307,38.714z"/>
	<path d="M49.889,38.714h-0.285c-0.188,0-0.283-0.097-0.283-0.284s0.098-0.283,0.283-0.283h0.285c0.188,0,0.283,0.096,0.283,0.283
		S50.076,38.714,49.889,38.714L49.889,38.714z"/>
	<path d="M48.277,38.714h-0.283c-0.189,0-0.285-0.097-0.285-0.284s0.096-0.283,0.285-0.283h0.283c0.188,0,0.283,0.096,0.283,0.283
		S48.467,38.714,48.277,38.714L48.277,38.714z"/>
	<path d="M46.666,38.714h-0.283c-0.189,0-0.283-0.097-0.283-0.284s0.094-0.283,0.283-0.283h0.283c0.189,0,0.287,0.096,0.287,0.283
		S46.855,38.714,46.666,38.714L46.666,38.714z"/>
	<path d="M45.152,38.714h-0.283c-0.189,0-0.285-0.097-0.285-0.284s0.096-0.283,0.285-0.283h0.283c0.188,0,0.283,0.096,0.283,0.283
		S45.248,38.714,45.152,38.714L45.152,38.714z"/>
	<path d="M43.543,38.714h-0.285c-0.189,0-0.283-0.097-0.283-0.284s0.094-0.283,0.283-0.283h0.285c0.188,0,0.283,0.096,0.283,0.283
		S43.639,38.714,43.543,38.714L43.543,38.714z"/>
	<path d="M41.932,38.714h-0.283c-0.188,0-0.281-0.097-0.281-0.284s0.094-0.283,0.281-0.283h0.283c0.191,0,0.285,0.096,0.285,0.283
		S42.025,38.714,41.932,38.714L41.932,38.714z"/>
	<path d="M40.322,38.714h-0.283c-0.189,0-0.285-0.097-0.285-0.284s0.096-0.283,0.285-0.283h0.283c0.189,0,0.285,0.096,0.285,0.283
		S40.418,38.714,40.322,38.714L40.322,38.714z"/>
	<path d="M38.713,38.714H38.43c-0.188,0-0.285-0.097-0.285-0.284s0.098-0.283,0.285-0.283h0.283c0.189,0,0.285,0.096,0.285,0.283
		S38.902,38.714,38.713,38.714L38.713,38.714z"/>
	<path d="M27.539,38.714h-0.284c-0.189,0-0.283-0.097-0.283-0.284s0.094-0.283,0.283-0.283h0.284c0.188,0,0.284,0.096,0.284,0.283
		C27.823,38.521,27.633,38.714,27.539,38.714L27.539,38.714z"/>
	<path d="M25.93,38.714h-0.285c-0.188,0-0.283-0.097-0.283-0.284s0.095-0.283,0.283-0.283h0.285c0.188,0,0.283,0.096,0.283,0.283
		S26.022,38.714,25.93,38.714L25.93,38.714z"/>
	<path d="M24.319,38.714h-0.284c-0.188,0-0.284-0.097-0.284-0.284s0.096-0.283,0.284-0.283h0.284c0.188,0,0.283,0.096,0.283,0.283
		C24.604,38.617,24.508,38.714,24.319,38.714L24.319,38.714z"/>
	<path d="M22.708,38.714h-0.283c-0.188,0-0.284-0.097-0.284-0.284s0.096-0.283,0.284-0.283h0.283c0.188,0,0.284,0.096,0.284,0.283
		S22.897,38.714,22.708,38.714L22.708,38.714z"/>
	<path d="M11.535,38.714H11.25c-0.189,0-0.284-0.097-0.284-0.284s0.095-0.283,0.284-0.283h0.284c0.188,0,0.284,0.096,0.284,0.283
		S11.629,38.714,11.535,38.714L11.535,38.714z"/>
	<path d="M16.934,48.275c-0.19,0-0.285-0.096-0.285-0.282c0-0.188,0.095-0.285,0.285-0.285c0.188,0,0.282,0.097,0.282,0.285l0,0
		C17.122,48.089,17.026,48.275,16.934,48.275L16.934,48.275z"/>
	<path d="M16.934,46.855c-0.19,0-0.285-0.097-0.285-0.283v-0.284c0-0.188,0.095-0.283,0.285-0.283c0.188,0,0.282,0.095,0.282,0.283
		v0.284C17.122,46.764,17.026,46.855,16.934,46.855L16.934,46.855z"/>
	<path d="M16.934,35.682c-0.19,0-0.285-0.095-0.285-0.283v-0.282c0-0.189,0.095-0.284,0.285-0.284c0.188,0,0.282,0.095,0.282,0.284
		v0.282C17.122,35.589,17.026,35.682,16.934,35.682L16.934,35.682z"/>
	<path d="M16.934,24.507c-0.19,0-0.285-0.095-0.285-0.283v-0.285c0-0.188,0.095-0.284,0.285-0.284c0.188,0,0.282,0.095,0.282,0.284
		v0.285C17.122,24.412,17.026,24.507,16.934,24.507L16.934,24.507z"/>
	<path d="M16.934,22.897c-0.19,0-0.285-0.094-0.285-0.284v-0.284c0-0.189,0.095-0.284,0.285-0.284c0.188,0,0.282,0.095,0.282,0.284
		v0.284C17.122,22.804,17.026,22.897,16.934,22.897L16.934,22.897z"/>
	<path d="M16.934,21.288c-0.19,0-0.285-0.095-0.285-0.285V20.72c0-0.188,0.095-0.283,0.285-0.283c0.188,0,0.282,0.094,0.282,0.283
		v0.285C17.122,21.193,17.026,21.288,16.934,21.288L16.934,21.288z"/>
	<path d="M16.934,19.679c-0.19,0-0.285-0.096-0.285-0.285V19.11c0-0.189,0.095-0.284,0.285-0.284c0.188,0,0.282,0.094,0.282,0.284
		v0.283C17.122,19.583,17.026,19.679,16.934,19.679L16.934,19.679z"/>
	<path d="M16.934,18.068c-0.19,0-0.285-0.095-0.285-0.284V17.5c0-0.188,0.095-0.284,0.285-0.284c0.188,0,0.282,0.094,0.282,0.284
		v0.284C17.122,17.974,17.026,18.068,16.934,18.068L16.934,18.068z"/>
	<path d="M16.934,16.458c-0.19,0-0.285-0.095-0.285-0.283V15.89c0-0.189,0.095-0.284,0.285-0.284c0.188,0,0.282,0.095,0.282,0.284
		v0.285C17.122,16.363,17.026,16.458,16.934,16.458L16.934,16.458z"/>
	<path d="M16.934,14.849c-0.19,0-0.285-0.094-0.285-0.284V14.28c0-0.189,0.095-0.284,0.285-0.284c0.188,0,0.282,0.095,0.282,0.284
		v0.284C17.122,14.755,17.026,14.849,16.934,14.849L16.934,14.849z"/>
	<path d="M16.934,13.333c-0.19,0-0.285-0.095-0.285-0.285v-0.283c0-0.19,0.095-0.284,0.285-0.284c0.188,0,0.282,0.094,0.282,0.284
		v0.283C17.122,13.144,17.026,13.333,16.934,13.333L16.934,13.333z"/>
	<path d="M16.934,11.724c-0.19,0-0.285-0.094-0.285-0.284v-0.284c0-0.189,0.095-0.284,0.285-0.284c0.188,0,0.282,0.095,0.282,0.284
		v0.284C17.122,11.533,17.026,11.724,16.934,11.724L16.934,11.724z"/>
	<path d="M16.934,10.113c-0.19,0-0.285-0.094-0.285-0.284V9.545c0-0.189,0.095-0.285,0.285-0.285c0.188,0,0.282,0.095,0.282,0.285
		v0.284C17.122,10.019,17.026,10.113,16.934,10.113L16.934,10.113z"/>
	<path d="M31.895,48.275c-0.188,0-0.283-0.096-0.283-0.282c0-0.188,0.096-0.285,0.283-0.285c0.189,0,0.283,0.097,0.283,0.285l0,0
		C32.178,48.089,32.084,48.275,31.895,48.275L31.895,48.275z"/>
	<path d="M31.895,46.855c-0.188,0-0.283-0.097-0.283-0.283v-0.284c0-0.188,0.096-0.283,0.283-0.283c0.189,0,0.283,0.095,0.283,0.283
		v0.284C32.178,46.764,32.084,46.855,31.895,46.855L31.895,46.855z"/>
	<path d="M31.895,45.246c-0.188,0-0.283-0.096-0.283-0.284V44.68c0-0.188,0.096-0.283,0.283-0.283c0.189,0,0.283,0.095,0.283,0.283
		v0.282C32.178,45.15,32.084,45.246,31.895,45.246L31.895,45.246z"/>
	<path d="M31.895,43.639c-0.188,0-0.283-0.098-0.283-0.283v-0.287c0-0.188,0.096-0.281,0.283-0.281c0.189,0,0.283,0.097,0.283,0.281
		v0.287C32.178,43.541,32.084,43.639,31.895,43.639L31.895,43.639z"/>
	<path d="M31.895,32.464c-0.188,0-0.283-0.097-0.283-0.284v-0.285c0-0.188,0.096-0.283,0.283-0.283c0.189,0,0.283,0.096,0.283,0.283
		v0.285C32.178,32.367,32.084,32.464,31.895,32.464L31.895,32.464z"/>
	<path d="M31.895,21.288c-0.188,0-0.283-0.095-0.283-0.285V20.72c0-0.188,0.096-0.283,0.283-0.283c0.189,0,0.283,0.094,0.283,0.283
		v0.285C32.178,21.193,32.084,21.288,31.895,21.288L31.895,21.288z"/>
	<path d="M31.895,19.679c-0.188,0-0.283-0.096-0.283-0.285V19.11c0-0.189,0.096-0.284,0.283-0.284c0.189,0,0.283,0.094,0.283,0.284
		v0.283C32.178,19.583,32.084,19.679,31.895,19.679L31.895,19.679z"/>
	<path d="M31.895,18.068c-0.188,0-0.283-0.095-0.283-0.284V17.5c0-0.188,0.096-0.284,0.283-0.284c0.189,0,0.283,0.094,0.283,0.284
		v0.284C32.178,17.974,32.084,18.068,31.895,18.068L31.895,18.068z"/>
	<path d="M31.895,14.849c-0.188,0-0.283-0.094-0.283-0.284V14.28c0-0.189,0.096-0.284,0.283-0.284c0.189,0,0.283,0.095,0.283,0.284
		v0.284C32.178,14.755,32.084,14.849,31.895,14.849L31.895,14.849z"/>
	<path d="M31.895,13.333c-0.188,0-0.283-0.095-0.283-0.285v-0.283c0-0.19,0.096-0.284,0.283-0.284c0.189,0,0.283,0.094,0.283,0.284
		v0.283C32.178,13.144,32.084,13.333,31.895,13.333L31.895,13.333z"/>
	<path d="M31.895,11.724c-0.188,0-0.283-0.094-0.283-0.284v-0.284c0-0.189,0.096-0.284,0.283-0.284c0.189,0,0.283,0.095,0.283,0.284
		v0.284C32.178,11.533,32.084,11.724,31.895,11.724L31.895,11.724z"/>
	<path d="M31.895,10.113c-0.188,0-0.283-0.094-0.283-0.284V9.545c0-0.189,0.096-0.285,0.283-0.285c0.189,0,0.283,0.095,0.283,0.285
		v0.284C32.178,10.019,32.084,10.113,31.895,10.113L31.895,10.113z"/>
	<path d="M47.33,48.275c-0.189,0-0.283-0.096-0.283-0.282c0-0.188,0.094-0.285,0.283-0.285s0.283,0.097,0.283,0.285l0,0
		C47.613,48.089,47.426,48.275,47.33,48.275L47.33,48.275z"/>
	<path d="M47.33,46.855c-0.189,0-0.283-0.097-0.283-0.283v-0.284c0-0.188,0.094-0.283,0.283-0.283s0.283,0.095,0.283,0.283v0.284
		C47.613,46.764,47.426,46.855,47.33,46.855L47.33,46.855z"/>
	<path d="M47.33,45.246c-0.189,0-0.283-0.096-0.283-0.284V44.68c0-0.188,0.094-0.283,0.283-0.283s0.283,0.095,0.283,0.283v0.282
		C47.613,45.15,47.426,45.246,47.33,45.246L47.33,45.246z"/>
	<path d="M47.33,43.639c-0.189,0-0.283-0.098-0.283-0.283v-0.287c0-0.188,0.094-0.281,0.283-0.281s0.283,0.097,0.283,0.281v0.287
		C47.613,43.541,47.426,43.639,47.33,43.639L47.33,43.639z"/>
	<path d="M47.33,42.121c-0.189,0-0.283-0.096-0.283-0.284v-0.282c0-0.188,0.094-0.283,0.283-0.283s0.283,0.095,0.283,0.283v0.282
		C47.613,41.934,47.426,42.121,47.33,42.121L47.33,42.121z"/>
	<path d="M47.33,40.514c-0.189,0-0.283-0.097-0.283-0.285v-0.283c0-0.188,0.094-0.283,0.283-0.283s0.283,0.095,0.283,0.283v0.283
		C47.613,40.322,47.426,40.514,47.33,40.514L47.33,40.514z"/>
	<path d="M47.33,37.292c-0.189,0-0.283-0.095-0.283-0.283v-0.284c0-0.188,0.094-0.285,0.283-0.285s0.283,0.098,0.283,0.285v0.284
		C47.613,37.197,47.426,37.292,47.33,37.292L47.33,37.292z"/>
	<path d="M47.33,35.682c-0.189,0-0.283-0.095-0.283-0.283v-0.282c0-0.189,0.094-0.284,0.283-0.284s0.283,0.095,0.283,0.284v0.282
		C47.613,35.589,47.426,35.682,47.33,35.682L47.33,35.682z"/>
	<path d="M47.33,34.072c-0.189,0-0.283-0.096-0.283-0.285v-0.282c0-0.188,0.094-0.285,0.283-0.285s0.283,0.097,0.283,0.285v0.282
		C47.613,33.979,47.426,34.072,47.33,34.072L47.33,34.072z"/>
	<path d="M47.33,22.897c-0.189,0-0.283-0.094-0.283-0.284v-0.284c0-0.189,0.094-0.284,0.283-0.284s0.283,0.095,0.283,0.284v0.284
		C47.613,22.804,47.426,22.897,47.33,22.897L47.33,22.897z"/>
	<path d="M47.33,11.724c-0.189,0-0.283-0.094-0.283-0.284v-0.284c0-0.189,0.094-0.284,0.283-0.284s0.283,0.095,0.283,0.284v0.284
		C47.613,11.533,47.426,11.724,47.33,11.724L47.33,11.724z"/>
	<path d="M47.33,10.113c-0.189,0-0.283-0.094-0.283-0.284V9.545c0-0.189,0.094-0.285,0.283-0.285s0.283,0.095,0.283,0.285v0.284
		C47.613,10.019,47.426,10.113,47.33,10.113L47.33,10.113z"/>
	<path d="M47.234,12.954c-2.271,0-4.166,1.895-4.166,4.167c0,1.041,0.379,1.894,0.947,2.651c-1.99,2.841-7.861,10.984-9.754,13.637
		c-0.475-0.189-0.947-0.284-1.422-0.284c-1.326,0-2.463,0.568-3.221,1.518l-8.899-3.979c0-0.189,0.094-0.474,0.094-0.663
		c0-2.272-1.895-4.167-4.168-4.167c-2.271,0-4.166,1.895-4.166,4.167c0,2.271,1.895,4.167,4.166,4.167
		c1.326,0,2.463-0.566,3.221-1.518l8.808,4.072c0,0.188-0.095,0.476-0.095,0.662c0,2.272,1.895,4.166,4.167,4.166
		c2.271,0,4.166-1.894,4.166-4.166c0-1.041-0.379-1.988-0.947-2.65c0.853-1.137,2.271-3.125,4.925-6.914l4.83-6.725
		c0.473,0.19,0.944,0.285,1.42,0.285c2.272,0,4.166-1.895,4.166-4.168C51.307,14.943,49.604,12.954,47.234,12.954z M16.647,31.989
		c-1.135,0-1.987-0.947-1.987-1.989s0.946-1.987,1.987-1.987c1.138,0,1.99,0.946,1.99,1.987
		C18.637,31.042,17.785,31.989,16.647,31.989z M32.842,39.375c-1.137,0-1.988-0.945-1.988-1.989c0-1.135,0.947-1.987,1.988-1.987
		c1.137,0,1.988,0.946,1.988,1.987C34.83,38.521,33.979,39.375,32.842,39.375z M47.234,19.11c-1.137,0-1.986-0.947-1.986-1.988
		c0-1.137,0.945-1.988,1.986-1.988c1.139,0,1.988,0.946,1.988,1.988C49.318,18.257,48.373,19.11,47.234,19.11z"/>
	<path d="M46.764,24.034c-1.801,0-3.41,1.136-3.979,2.841l-6.818-0.474c-0.285-1.989-2.084-3.504-4.166-3.504
		c-2.273,0-4.167,1.894-4.167,4.167c0,0.663,0.189,1.325,0.475,1.799c-0.758,0.663-1.988,1.799-3.883,3.503l-5.776,5.208
		c-0.663-0.475-1.421-0.663-2.273-0.663c-2.272,0-4.166,1.896-4.166,4.167c0,2.273,1.894,4.167,4.166,4.167
		c2.273,0,4.167-1.894,4.167-4.167c0-0.662-0.189-1.325-0.474-1.895c2.368-2.179,7.575-6.817,9.754-8.712
		c0.663,0.474,1.42,0.664,2.272,0.664c1.799,0,3.312-1.138,3.883-2.748l6.818,0.475c0.379,1.893,2.084,3.408,4.068,3.408
		c2.271,0,4.168-1.893,4.168-4.166C50.93,25.929,49.035,24.034,46.764,24.034z M16.081,43.066c-1.137,0-1.989-0.945-1.989-1.987
		c0-1.136,0.947-1.988,1.989-1.988c1.136,0,1.988,0.947,1.988,1.988C18.164,42.121,17.216,43.066,16.081,43.066z M31.895,28.958
		c-0.758,0-1.417-0.473-1.796-1.137v-0.189l0,0c-0.096-0.285-0.189-0.474-0.189-0.758c0-1.137,0.946-1.988,1.987-1.988
		c1.14,0,1.987,0.946,1.987,1.988C33.883,28.105,33.031,28.958,31.895,28.958z M46.764,30.189c-1.139,0-1.99-0.947-1.99-1.989
		c0-1.136,0.947-1.989,1.99-1.989c1.135,0,1.986,0.947,1.986,1.989C48.75,29.337,47.898,30.189,46.764,30.189z"/>
	<path d="M53.676,52.729H6.327C5.568,52.729,5,52.16,5,51.4V8.598C5,7.84,5.568,7.272,6.327,7.272c0.757,0,1.325,0.568,1.325,1.326
		v41.478h46.022c0.758,0,1.326,0.566,1.326,1.324C55,52.062,54.432,52.729,53.676,52.729L53.676,52.729z"/>
</g>
</svg>
