<?xml version="1.0" encoding="utf-8"?>
<!-- Generator: Adobe Illustrator 16.0.0, SVG Export Plug-In . SVG Version: 6.00 Build 0)  -->
<!DOCTYPE svg PUBLIC "-//W3C//DTD SVG 1.1//EN" "http://www.w3.org/Graphics/SVG/1.1/DTD/svg11.dtd">
<svg version="1.1" id="Layer_1" xmlns="http://www.w3.org/2000/svg" xmlns:xlink="http://www.w3.org/1999/xlink" x="0px" y="0px"
	 width="60px" height="60px" viewBox="0 0 60 60" enable-background="new 0 0 60 60" xml:space="preserve">
<g>
	<path id="books" d="M50.902,15.384c-0.312-0.312-0.729-0.312-1.146-0.209l-18.557,8.027c-0.834,0.313-1.772,0.521-2.814,0.521
		c-1.46,0-2.92-0.312-3.962-0.834c-0.417-0.207-0.729-0.312-0.938-0.521c0.104,0,0.209-0.104,0.313-0.104l16.89-7.298l2.502,1.042
		v-3.127c0-0.521-0.209-0.938-0.521-1.146c-0.312-0.312-0.729-0.312-1.146-0.209l-18.768,8.133c-0.521,0.208-1.042,0.521-1.46,0.938
		c-0.417,0.418-0.729,1.043-0.729,1.772v0.104V50.83l0,0l0,0l0,0l0,0c0,1.043,0.521,1.668,1.043,2.085
		C23.066,54.271,25.674,55,28.279,55c1.252,0,2.608-0.208,3.754-0.729l18.66-7.924c0.521-0.209,0.834-0.729,0.834-1.355V16.53
		C51.425,16.113,51.216,15.592,50.902,15.384z M39.123,9.963c0-0.418-0.209-0.835-0.521-1.043c-0.312-0.312-0.729-0.312-1.146-0.209
		l-18.557,8.028c-0.834,0.312-1.772,0.521-2.815,0.521c-1.459,0-2.919-0.312-3.961-0.835c-0.417-0.208-0.729-0.312-0.938-0.521
		c0.104,0,0.209-0.104,0.312-0.104l16.891-7.298l2.502,1.042V6.417c0-0.521-0.209-0.938-0.521-1.146
		c-0.312-0.313-0.834-0.313-1.146-0.209l-18.56,8.028c-0.625,0.209-1.042,0.521-1.459,0.938C8.785,14.445,8.473,15.07,8.473,15.8
		l0,0v28.356l0,0l0,0l0,0l0,0c0,1.043,0.521,1.668,1.043,2.085c1.459,1.354,4.064,2.086,6.672,2.086
		c0.729,0,1.459-0.104,2.188-0.209V22.473c0-1.354,0.521-2.605,1.46-3.545c0.625-0.625,1.355-1.042,2.293-1.459L39.123,9.963z"/>
</g>
</svg>
