<?xml version="1.0" encoding="utf-8"?>
<!-- Generator: Adobe Illustrator 16.0.0, SVG Export Plug-In . SVG Version: 6.00 Build 0)  -->
<!DOCTYPE svg PUBLIC "-//W3C//DTD SVG 1.1//EN" "http://www.w3.org/Graphics/SVG/1.1/DTD/svg11.dtd">
<svg version="1.1" id="Layer_1" xmlns="http://www.w3.org/2000/svg" xmlns:xlink="http://www.w3.org/1999/xlink" x="0px" y="0px"
	 width="60px" height="60px" viewBox="0 0 60 60" enable-background="new 0 0 60 60" xml:space="preserve">
<g>
	<path d="M29.062,40.641c0.209,0.104,0.416,0,0.416-0.104L30,39.6c0.104-0.209,0-0.418-0.104-0.418l-11.033-6.349
		c-0.207-0.104-0.416,0-0.416,0.104l-0.521,0.938c-0.104,0.209,0,0.416,0.104,0.416L29.062,40.641z"/>
	<path d="M19.176,41.264c0.208,0.104,0.416,0,0.416-0.104l1.77-3.021l-3.019-1.771l-1.769,3.021c-0.104,0.207,0,0.416,0.104,0.416
		L19.176,41.264z"/>
	<path d="M22.298,43.136l2.394,1.457c0.209,0.104,0.418,0,0.418-0.104l1.77-3.021l-3.02-1.77l-1.77,3.019
		C22.09,42.823,22.193,43.032,22.298,43.136z"/>
	<path d="M42.072,50.316H38.95c3.227-3.021,5.204-7.284,5.204-12.071c0-4.478-1.771-8.535-4.579-11.449
		c-0.312,1.665-1.457,3.018-3.019,3.643c1.873,2.083,2.914,4.893,2.914,7.911c0,6.66-5.412,12.071-12.076,12.071h-9.574
		c-1.146,0-1.977,0.938-1.977,1.979v2.602h28.308v-2.604C44.154,51.254,43.218,50.316,42.072,50.316z"/>
	<circle cx="34.684" cy="25.755" r="3.643"/>
	<path d="M28.439,36.579l3.747-6.453c-1.457-0.833-2.499-2.498-2.499-4.372c0-2.81,2.292-4.995,4.997-4.995
		c0.938,0,1.771,0.208,2.498,0.729l2.914-5.101c0.104-0.208,0.209-0.521,0.104-0.728c-0.104-0.208-0.208-0.521-0.416-0.625
		l-0.625-0.312l3.123-5.412l0.206,0.104c0.21,0.104,0.419,0,0.521-0.104l0.623-1.041c0.104-0.208,0-0.417-0.104-0.521l-4.372-2.706
		c-0.208-0.104-0.415,0-0.521,0.104l-0.625,1.041c-0.104,0.208,0,0.416,0.104,0.521l0.208,0.104l-3.122,5.516l-0.521-0.312
		c-0.209-0.104-0.521-0.209-0.729-0.104c-0.209,0.104-0.521,0.208-0.624,0.521L21.674,32.729L28.439,36.579z"/>
</g>
</svg>
